<?xml version="1.0" encoding="iso-8859-1"?>
<!-- Uploaded to: SVG Repo, www.svgrepo.com, Generator: SVG Repo Mixer Tools -->
<svg height="800px" width="800px" version="1.1" id="Layer_1" xmlns="http://www.w3.org/2000/svg" xmlns:xlink="http://www.w3.org/1999/xlink" 
	 viewBox="0 0 512 512" xml:space="preserve">
<path style="fill:#4A5A67;" d="M0,256.006C0,397.402,114.606,512.004,255.996,512C397.394,512.004,512,397.402,512,256.006
	C512.009,114.61,397.394,0,255.996,0C114.606,0,0,114.614,0,256.006z"/>
<path style="fill:#444A54;" d="M512,256.005c0-13.657-1.093-27.055-3.152-40.133c-0.187-0.177-0.366-0.365-0.561-0.526
	c-0.179-0.179-0.342-0.385-0.526-0.557c-0.084-0.099-80.784-80.795-81.023-80.993c-0.179-0.179-0.343-0.384-0.529-0.557
	c-0.083-0.098-0.183-0.189-0.271-0.285c-0.23-0.21-44.845-44.974-46.265-46.039c-20.179-15.151-48.951-12.957-65.498,4.98
	c-14.142,15.327-17.251,37.376-7.735,54.863c1.692,3.111,1.349,6.685-0.854,8.889L155.408,305.825
	c-2.213,2.201-5.593,2.625-8.397,1.07c-18.32-10.222-41.121-6.591-56.743,9.013c-6.883,6.883-11.467,16.297-12.913,26.506
	c-1.532,10.828,0.831,20.293,7.021,28.154c1.346,1.706,2.844,3.237,4.422,4.667c0.495,0.497,34.141,34.146,34.161,34.165
	c1.102,5.793,3.294,11.152,7.68,14.958c0.102,0.09,0.224,0.147,0.329,0.236c0.395,0.409,0.718,0.867,1.154,1.247
	c0.102,0.089,81.774,81.695,81.876,81.782c0.337,0.35,0.639,0.722,0.986,1.067c13.359,2.151,27.05,3.31,41.014,3.31
	C397.394,512.004,512,397.401,512,256.005z"/>
<path style="fill:#F4F6F9;" d="M425.822,132.997c-8.032-10.537-22.662-10.806-34.417-11.018c-0.427-0.007-0.846-0.015-1.262-0.022
	c-0.003-0.627,0-1.254,0-1.895c0.015-11.259,0.033-25.266-10.47-33.148c-20.179-15.152-48.953-12.957-65.498,4.98
	c-14.142,15.327-17.252,37.377-7.737,54.863c1.692,3.114,1.349,6.687-0.853,8.889L155.407,305.825
	c-2.213,2.202-5.593,2.625-8.397,1.072c-18.32-10.223-41.121-6.592-56.743,9.012c-6.883,6.883-11.467,16.297-12.913,26.506
	c-1.532,10.828,0.831,20.292,7.022,28.154c9.76,12.381,26.549,17.15,37.461,18.973c0.003,0.758,0.003,1.532,0.007,2.319
	c0.015,11.09,0.033,24.894,8.794,32.499c8.353,7.255,18.831,10.791,29.469,10.791c13.522,0,27.303-5.716,37.29-16.785
	c15.681-17.369,17.489-38.084,4.958-56.846c-1.885-2.822-1.561-6.562,0.769-8.896l149.3-149.297c2.337-2.326,6.019-2.69,8.757-0.853
	c19.276,12.964,41.234,10.588,58.727-6.351C437.628,178.957,440.169,151.818,425.822,132.997z M409.518,185.403
	c-7.182,6.956-21.926,16.836-39.999,4.682c-8.641-5.826-20.271-4.703-27.653,2.684L192.562,342.064
	c-7.35,7.357-8.454,19.031-2.625,27.753c10.956,16.399,4.076,30.013-3.623,38.544c-12.436,13.781-33.017,15.895-45.887,4.725
	c-3.623-3.15-3.643-14.036-3.649-21.241c-0.007-3.551-0.026-6.862-0.285-9.581c-0.342-3.566-3.161-6.387-6.726-6.723
	c-15.203-1.451-27.789-6.767-33.662-14.219c-3.62-4.594-4.914-10.092-3.963-16.815c0.995-7.022,4.08-13.431,8.685-18.039
	c6.806-6.803,15.499-10.369,24.102-10.369c5.104,0,10.179,1.254,14.805,3.836c8.564,4.777,19.348,3.317,26.231-3.551
	l150.179-150.179c6.924-6.919,8.294-17.602,3.412-26.578c-6.457-11.871-4.211-26.987,5.593-37.603
	c11.419-12.381,31.435-13.766,45.562-3.165c4.525,3.398,4.51,12.848,4.499,21.182c-0.003,3.522,0.003,6.868,0.281,9.771
	c0.339,3.566,3.161,6.387,6.726,6.723c2.628,0.255,5.677,0.321,8.914,0.379c8.539,0.154,19.163,0.35,22.812,5.14
	C423.868,155.07,422.009,173.299,409.518,185.403z"/>
</svg>