<?xml version="1.0" encoding="iso-8859-1"?>
<!-- Uploaded to: SVG Repo, www.svgrepo.com, Generator: SVG Repo Mixer Tools -->
<svg height="800px" width="800px" version="1.1" id="Layer_1" xmlns="http://www.w3.org/2000/svg" xmlns:xlink="http://www.w3.org/1999/xlink" 
	 viewBox="0 0 506.676 506.676" xml:space="preserve">
<g transform="translate(0 -1004.36)" shape-rendering="auto" image-rendering="auto" color-rendering="auto" color-interpolation="sRGB">
	<path style="fill:#3B322E;" d="M109.338,1175.036c-4.418,0.001-8,3.582-8,8v63.999c0,4.418,3.582,8,8,8h24v248c0,4.418,3.582,8,8,8
		h234.667c4.418,0,8-3.582,8-8v-248h24c4.418,0,8-3.582,8-8v-64c0-4.418-3.582-7.999-8-8L109.338,1175.036L109.338,1175.036z"/>
	<path style="fill:#6D4C41;" d="M117.338,1191.036h282.667v47.999H117.338V1191.036L117.338,1191.036z"/>
	<path style="fill:#E56452;" d="M149.338,1255.036h59.125c-0.32,0.902-0.475,1.854-0.459,2.811v45.189h-55.854
		c-0.959-0.009-1.912,0.154-2.813,0.48v-48.479V1255.036z"/>
	<path style="fill:#B65D45;" d="M223.526,1255.036h70.271c-0.32,0.902-0.475,1.854-0.459,2.811v45.189h-69.333v-45.189
		c0.01-0.958-0.153-1.91-0.48-2.811H223.526z"/>
	<g>
		<path style="fill:#E56452;" d="M308.859,1255.036h59.146v48.479c-0.908-0.329-1.867-0.492-2.833-0.48h-55.834v-45.189
			c0.01-0.958-0.153-1.91-0.48-2.811L308.859,1255.036z"/>
		<path style="fill:#E56452;" d="M368.005,1318.536v48.979c-0.908-0.329-1.867-0.492-2.833-0.48h-24.313
			c0.33-0.907,0.492-1.867,0.48-2.833v-45.167h23.834c0.967,0.005,1.927-0.164,2.833-0.501L368.005,1318.536z"/>
	</g>
	<path style="fill:#B65D45;" d="M149.338,1318.558c0.901,0.327,1.854,0.49,2.813,0.48h23.854v45.167
		c-0.012,0.966,0.15,1.926,0.48,2.833h-24.333c-0.959-0.009-1.912,0.154-2.813,0.48v-48.958L149.338,1318.558z"/>
	<path style="fill:#E56452;" d="M192.005,1319.036h58.667v45.167c-0.012,0.966,0.15,1.926,0.48,2.833h-59.625
		c0.33-0.908,0.492-1.867,0.48-2.833v-45.167H192.005z"/>
	<path style="fill:#B65D45;" d="M266.671,1319.036h58.667v45.167c-0.012,0.966,0.15,1.926,0.48,2.833h-59.625
		c0.33-0.908,0.492-1.867,0.48-2.833v-45.167H266.671z"/>
	<g>
		<path style="fill:#E56452;" d="M368.005,1382.536v48.979c-0.908-0.329-1.867-0.492-2.833-0.48h-56.313
			c0.33-0.907,0.492-1.867,0.48-2.833v-45.167h55.834c0.967,0.005,1.927-0.164,2.833-0.501L368.005,1382.536z"/>
		<path style="fill:#E56452;" d="M149.338,1382.558c0.901,0.327,1.854,0.49,2.813,0.48h55.854v45.167
			c-0.012,0.966,0.15,1.926,0.48,2.833h-56.333c-0.959-0.009-1.912,0.154-2.813,0.48v-48.958L149.338,1382.558z"/>
	</g>
	<path style="fill:#B65D45;" d="M224.005,1383.036h69.333v45.167c-0.012,0.966,0.15,1.926,0.48,2.833h-70.291
		c0.33-0.908,0.492-1.867,0.48-2.833v-45.167H224.005z"/>
	<path style="fill:#E56452;" d="M368.005,1446.536v48.5h-27.146c0.33-0.908,0.492-1.867,0.48-2.833v-45.167h23.834
		c0.967,0.005,1.927-0.164,2.833-0.501L368.005,1446.536z"/>
	<path style="fill:#B65D45;" d="M149.338,1446.558c0.901,0.327,1.854,0.49,2.813,0.48h23.854v45.167
		c-0.012,0.966,0.15,1.926,0.48,2.833h-27.146v-48.479L149.338,1446.558z"/>
	<path style="fill:#E56452;" d="M192.005,1447.036h58.667v45.167c-0.012,0.966,0.15,1.926,0.48,2.833h-59.625
		c0.33-0.908,0.492-1.867,0.48-2.833v-45.167H192.005z"/>
	<path style="fill:#B65D45;" d="M266.671,1447.036h58.667v45.167c-0.012,0.966,0.15,1.926,0.48,2.833h-59.625
		c0.33-0.908,0.492-1.867,0.48-2.833v-45.167H266.671z"/>
	<path style="fill:#3B322E;" d="M279.963,1015.015c-15.539-0.331-30.048,8.167-37.209,21.896c-1.803-0.192-3.563-0.544-5.417-0.544
		c-27.887,0-50.667,22.779-50.667,50.667s22.78,50.667,50.667,50.667c25.453,0,46.429-19.049,49.938-43.563
		c17.534-3.537,31.187-17.995,32.583-36.063c1.55-20.061-12.511-38.141-32.438-42.208c-2.491-0.512-4.987-0.8-7.458-0.854
		L279.963,1015.015z"/>
	<path style="fill:#E6E6E6;" d="M279.609,1031.036c1.526,0,3.077,0.203,4.625,0.523c12.378,2.527,20.595,13.302,19.667,25.27
		c-0.757,9.783-7.521,17.863-16.854,20.896c-3.038-16.175-13.795-29.601-28.292-36.438c4.722-6.485,12.476-10.441,20.854-10.249
		V1031.036z"/>
	<path style="fill:#D6D6D6;" d="M237.338,1052.37c19.241,0,34.667,15.426,34.667,34.667s-15.426,34.667-34.667,34.667
		s-34.667-15.427-34.667-34.667S218.097,1052.37,237.338,1052.37z"/>
	<path style="fill:#3B322E;" d="M141.338,1063.027c-16.106,0-29.333-13.228-29.333-29.333c0-16.106,13.228-29.333,29.333-29.333
		s29.333,13.228,29.333,29.333C170.671,1049.799,157.443,1063.027,141.338,1063.027z"/>
	<path style="fill:#E6E6E6;" d="M141.338,1047.027c7.459,0,13.333-5.875,13.333-13.333c0-7.458-5.874-13.333-13.333-13.333
		c-7.458,0-13.333,5.875-13.333,13.333C128.005,1041.152,133.88,1047.027,141.338,1047.027z"/>
	<path style="fill:#3B322E;" d="M66.671,1159.027c-27.887,0-50.667-22.779-50.667-50.667s22.78-50.667,50.667-50.667
		c27.888,0,50.667,22.779,50.667,50.667S94.559,1159.027,66.671,1159.027z"/>
	<path style="fill:#D6D6D6;" d="M66.671,1143.027c19.241,0,34.667-15.426,34.667-34.667s-15.426-34.667-34.667-34.667
		s-34.667,15.426-34.667,34.667S47.431,1143.027,66.671,1143.027z"/>
	<path style="fill:#3B322E;" d="M450.671,1084.36c21.997,0,40-18.003,40-40c0-21.997-18.003-40-40-40s-40,18.003-40,40
		C410.671,1066.357,428.674,1084.36,450.671,1084.36z"/>
	<path style="fill:#E6E6E6;" d="M450.671,1068.36c-13.349,0-24-10.65-24-24s10.651-24,24-24s24,10.65,24,24
		S464.021,1068.36,450.671,1068.36z"/>
	<path style="fill:#3B322E;" d="M376.005,1137.693c16.106,0,29.333-13.228,29.333-29.333s-13.228-29.333-29.333-29.333
		s-29.333,13.228-29.333,29.333S359.899,1137.693,376.005,1137.693z"/>
	<path style="fill:#D6D6D6;" d="M376.005,1121.693c-7.458,0-13.333-5.875-13.333-13.333s5.875-13.333,13.333-13.333
		c7.459,0,13.333,5.875,13.333,13.333S383.464,1121.693,376.005,1121.693z"/>
	<g>
		<path style="fill:#B7B7B7;" d="M141.338,1020.37c-2.469,0-4.637,0.822-6.604,1.958c3.974,2.287,6.729,6.384,6.729,11.375
			c0,4.99-2.754,9.088-6.729,11.375c1.967,1.133,4.134,1.958,6.604,1.958c7.459,0,13.333-5.875,13.333-13.333
			C154.671,1026.245,148.797,1020.37,141.338,1020.37z"/>
		<path style="fill:#B7B7B7;" d="M450.671,1020.37c-2.315,0-4.493,0.426-6.604,1.024c10.074,2.849,17.395,11.937,17.395,22.979
			c0,11.041-7.322,20.13-17.395,22.979c2.111,0.598,4.289,1.024,6.604,1.024c13.349,0,24-10.65,24-24s-10.651-24-24-24V1020.37z"/>
		<path style="fill:#B7B7B7;" d="M279.609,1031.036c-2.457-0.107-4.815,0.341-7.104,0.96c11.521,3.069,19.076,13.365,18.188,24.833
			c-0.395,5.139-2.516,9.745-5.729,13.459c0.853,2.409,1.602,4.876,2.083,7.437c9.333-3.034,16.097-11.113,16.854-20.896
			c0.928-11.968-7.29-22.744-19.667-25.27C282.686,1031.24,281.135,1031.037,279.609,1031.036L279.609,1031.036z"/>
		<path style="fill:#B7B7B7;" d="M237.338,1052.37c-2.262,0-4.466,0.256-6.604,0.661c16.045,3.059,28.062,17.022,28.062,34
			c0,16.978-12.017,30.941-28.062,34c2.138,0.406,4.341,0.661,6.604,0.661c19.241,0,34.667-15.426,34.667-34.667
			s-15.426-34.667-34.667-34.667V1052.37z"/>
		<path style="fill:#B7B7B7;" d="M66.671,1073.703c-2.262,0-4.466,0.256-6.604,0.661c16.045,3.059,28.062,17.022,28.062,34
			c0,16.978-12.017,30.941-28.062,34c2.138,0.406,4.341,0.661,6.604,0.661c19.241,0,34.667-15.426,34.667-34.667
			s-15.426-34.667-34.667-34.667V1073.703z"/>
		<path style="fill:#B7B7B7;" d="M376.005,1095.036c-2.469,0-4.637,0.822-6.604,1.958c3.974,2.287,6.729,6.384,6.729,11.375
			c0,4.99-2.754,9.088-6.729,11.375c1.967,1.133,4.134,1.958,6.604,1.958c7.459,0,13.333-5.875,13.333-13.333
			S383.464,1095.036,376.005,1095.036z"/>
	</g>
	<path style="fill:#634940;" d="M386.796,1191.036v47.999h13.209v-48L386.796,1191.036L386.796,1191.036z"/>
	<path style="fill:#C35C4E;" d="M195.255,1255.036c-0.32,0.902-0.475,1.854-0.459,2.811v45.189h13.209v-45.189
		c-0.016-0.957,0.139-1.909,0.459-2.811H195.255z"/>
	<path style="fill:#9E5643;" d="M280.609,1255.036c-0.327,0.901-0.49,1.853-0.48,2.811v45.189h13.209v-45.189
		c-0.016-0.957,0.139-1.909,0.459-2.811H280.609z"/>
	<g>
		<path style="fill:#C35C4E;" d="M354.796,1255.036v48h10.375c0.966-0.012,1.925,0.151,2.833,0.48v-48.479h-13.209L354.796,1255.036
			z"/>
		<path style="fill:#C35C4E;" d="M368.005,1318.536c-0.906,0.337-1.866,0.506-2.833,0.501h-10.375v48h10.375
			c0.966-0.012,1.925,0.151,2.833,0.48v-48.979V1318.536z"/>
	</g>
	<path style="fill:#9E5643;" d="M162.796,1319.016v45.146c-0.012,0.966,0.15,1.926,0.48,2.833h-13.938v0.501
		c0.901-0.327,1.854-0.49,2.813-0.48h24.333c-0.33-0.908-0.492-1.867-0.48-2.833v-45.167h-13.209H162.796z"/>
	<path style="fill:#C35C4E;" d="M237.463,1319.016v45.146c-0.012,0.966,0.15,1.926,0.48,2.833h-46.417h59.625
		c-0.33-0.907-0.492-1.867-0.48-2.833v-45.167h-13.209L237.463,1319.016z"/>
	<path style="fill:#9E5643;" d="M312.129,1319.016v45.146c-0.012,0.966,0.15,1.926,0.48,2.833h-46.417h59.625
		c-0.33-0.907-0.492-1.867-0.48-2.833v-45.167h-13.209L312.129,1319.016z"/>
	<g>
		<path style="fill:#C35C4E;" d="M368.005,1382.516c-0.906,0.337-1.866,0.506-2.833,0.501h-10.375v48h10.375
			c0.966-0.012,1.925,0.151,2.833,0.48v-48.979V1382.516z"/>
		<path style="fill:#C35C4E;" d="M194.796,1382.995v45.124c-0.012,0.966,0.15,1.927,0.48,2.835h-45.938v0.522
			c0.901-0.327,1.854-0.49,2.813-0.48h56.333c-0.33-0.907-0.492-1.867-0.48-2.833v-45.167h-13.209H194.796z"/>
	</g>
	<path style="fill:#9E5643;" d="M280.129,1382.995v45.124c-0.012,0.966,0.15,1.927,0.48,2.835h-57.062h70.291
		c-0.33-0.908-0.492-1.867-0.48-2.833v-45.167H280.15L280.129,1382.995z"/>
	<path style="fill:#C35C4E;" d="M368.005,1446.495c-0.906,0.337-1.866,0.507-2.833,0.501h-10.375v47.958H340.88h27.146v-48.5
		L368.005,1446.495z"/>
	<path style="fill:#9E5643;" d="M162.796,1446.976v45.104c-0.012,0.966,0.15,1.926,0.48,2.833h-13.938v0.107h27.146
		c-0.33-0.908-0.492-1.867-0.48-2.833v-45.167h-13.209L162.796,1446.976z"/>
	<path style="fill:#C35C4E;" d="M237.463,1446.976v45.104c-0.013,0.97,0.48,2.833,0.48,2.833l13.229,0.107
		c0,0-0.492-1.867-0.48-2.833v-45.167h-13.209L237.463,1446.976z"/>
	<path style="fill:#9E5643;" d="M312.129,1446.976v45.104c-0.012,0.966,0.15,1.926,0.48,2.833h-46.396c0,0.035,0,0.072,0,0.107
		h59.625c-0.33-0.908-0.492-1.867-0.48-2.833v-45.167H312.15L312.129,1446.976z"/>
</g>
</svg>