<?xml version="1.0" encoding="iso-8859-1"?>
<!-- Uploaded to: SVG Repo, www.svgrepo.com, Generator: SVG Repo Mixer Tools -->
<svg height="800px" width="800px" version="1.1" id="Layer_1" xmlns="http://www.w3.org/2000/svg" xmlns:xlink="http://www.w3.org/1999/xlink" 
	 viewBox="0 0 512.004 512.004" xml:space="preserve">
<g>
	<path style="fill:#BC5949;" d="M185.381,361.931c-4.882,0-8.828-3.955-8.828-8.828c0-9.737-7.918-17.655-17.655-17.655
		c-24.338,0-44.138-19.8-44.138-44.138c0-24.338-19.8-44.138-44.138-44.138s-44.138,19.8-44.138,44.138
		c0,24.338,19.8,44.138,44.138,44.138c4.882,0,8.828,3.955,8.828,8.828c0,4.873-3.946,8.828-8.828,8.828
		c-34.066,0-61.793-27.719-61.793-61.793s27.727-61.793,61.793-61.793s61.793,27.719,61.793,61.793
		c0,14.601,11.882,26.483,26.483,26.483c19.474,0,35.31,15.837,35.31,35.31C194.209,357.976,190.263,361.931,185.381,361.931"/>
	<g>
		<path style="fill:#E6E6E6;" d="M503.174,61.793c0,34.127-82.997,61.793-185.379,61.793S132.416,95.921,132.416,61.793
			S215.413,0,317.795,0S503.174,27.666,503.174,61.793"/>
		<path style="fill:#E6E6E6;" d="M459.036,410.239v13.489c0,24.373-63.232,44.138-141.241,44.138s-141.241-19.765-141.241-44.138
			v-13.489c-27.48,10.778-44.138,24.717-44.138,39.971c0,34.127,82.997,61.793,185.379,61.793s185.379-27.666,185.379-61.793
			C503.174,434.956,486.517,421.018,459.036,410.239"/>
	</g>
	<g>
		<path style="fill:#EF705D;" d="M437.994,303.977l-261.438-65.359v24.859l214.387,67.743L437.994,303.977z"/>
		<path style="fill:#EF705D;" d="M200.632,226.437l51.385,12.844l207.016-118.298v-19.218c-21.645,8.492-50.07,14.989-82.45,18.609
			l4.237,7.777L200.632,226.437z"/>
		<path style="fill:#EF705D;" d="M316.106,374.546l-139.555-38.762v23.473l99.716,38.356L316.106,374.546z"/>
		<path style="fill:#EF705D;" d="M322.618,256.934l136.422-83.032v-32.583L276.768,245.476L322.618,256.934z"/>
		<path style="fill:#EF705D;" d="M337.49,362.165l32.759-18.971l-193.695-61.193v44.623l2.357-8.51L337.49,362.165z"/>
		<path style="fill:#EF705D;" d="M317.795,123.586c-15.607,0-30.685-0.697-45.162-1.916l5.182,9.702l-101.261,54.007v34.083
			l178.141-97.165C342.75,123.101,330.454,123.586,317.795,123.586"/>
		<path style="fill:#EF705D;" d="M176.553,101.761v63.612l84.083-44.844C227.586,116.944,198.561,110.394,176.553,101.761"/>
		<path style="fill:#EF705D;" d="M386.915,273.008l72.121-45.074v-33.377l-112.358,68.396L386.915,273.008z"/>
		<path style="fill:#EF705D;" d="M298.048,467.381c6.471,0.283,13.029,0.486,19.747,0.486c78.009,0,141.241-19.765,141.241-44.138
			v-51.041L298.048,467.381z"/>
		<path style="fill:#EF705D;" d="M459.036,312.191L214.512,453.759c14.557,4.891,32.583,8.73,52.904,11.158l191.62-112.711V312.191z
			"/>
		<path style="fill:#EF705D;" d="M256.628,408.981l-80.075-30.799v45.542c0,9.463,9.622,18.22,25.856,25.406l-3.796-6.559
			L256.628,408.981z"/>
		<path style="fill:#EF705D;" d="M459.036,291.038v-42.284l-48.322,30.208L459.036,291.038z"/>
	</g>
	<g>
		<path style="fill:#BC5949;" d="M200.632,226.437l180.189-98.286l-4.237-7.777c-7.106,0.794-14.424,1.412-21.884,1.916
			l-178.15,97.174v0.953L200.632,226.437z"/>
		<path style="fill:#BC5949;" d="M459.036,300.138l-2.136,8.563l-18.909-4.723l-47.042,27.242l2.189,0.689l-5.323,16.834
			l-17.567-5.544l-32.759,18.962l0.327,0.097l-4.732,17.002l-16.975-4.714l-39.839,23.066l0.556,0.212l-6.338,16.49l-13.859-5.332
			l-58.015,33.589l3.796,6.559c3.69,1.633,7.751,3.169,12.103,4.634l244.524-141.577V300.138z"/>
	</g>
	<path d="M459.947,291.267l-0.909-0.229v0.759L459.947,291.267z"/>
	<g>
		<path style="fill:#BC5949;" d="M459.036,291.794v-0.759l-48.322-12.076l-17.62,11.008l-9.357-14.972l3.178-1.986l-40.236-10.063
			l-15.466,9.419l-9.181-15.078l0.583-0.353l-45.85-11.458l-16.384,9.357l-8.757-15.325l0.388-0.221l-51.377-12.853l-19.853,10.831
			l-4.228-7.751v9.101l261.438,65.359L459.036,291.794z"/>
		<path style="fill:#BC5949;" d="M176.553,229.517l4.228,7.751l19.853-10.831l-24.082-6.02V229.517z"/>
		<path style="fill:#BC5949;" d="M437.994,303.977l18.9,4.723l2.145-8.563v-8.342L437.994,303.977z"/>
		<path style="fill:#BC5949;" d="M276.769,245.472l182.272-104.157v-20.33L252.016,239.284L276.769,245.472z"/>
		<path style="fill:#BC5949;" d="M251.622,239.508l8.757,15.325l16.393-9.357l-24.753-6.188L251.622,239.508z"/>
		<path style="fill:#BC5949;" d="M346.679,262.949l112.358-68.387v-20.665l-136.422,83.041L346.679,262.949z"/>
		<path style="fill:#BC5949;" d="M322.037,257.289l9.172,15.078l15.475-9.419l-24.064-6.012L322.037,257.289z"/>
		<path style="fill:#BC5949;" d="M410.715,278.959l48.322-30.199v-20.824l-72.121,45.074L410.715,278.959z"/>
		<path style="fill:#BC5949;" d="M383.734,274.996l9.366,14.972l17.611-11.008l-23.799-5.95L383.734,274.996z"/>
		<path style="fill:#BC5949;" d="M390.946,331.216L176.55,263.482v18.511l193.704,61.202L390.946,331.216z"/>
		<path style="fill:#BC5949;" d="M387.812,348.745l5.332-16.834l-2.198-0.697l-20.692,11.979L387.812,348.745z"/>
		<path style="fill:#BC5949;" d="M337.49,362.165l-158.579-44.05l-2.357,8.51v9.154L316.11,374.55L337.49,362.165z"/>
		<path style="fill:#BC5949;" d="M333.088,379.263l4.723-17.011l-0.318-0.088l-21.389,12.385L333.088,379.263z"/>
		<path style="fill:#BC5949;" d="M276.266,397.611l-99.716-38.347v18.918l80.075,30.799L276.266,397.611z"/>
		<path style="fill:#BC5949;" d="M270.484,414.31l6.347-16.481l-0.565-0.221l-19.641,11.37L270.484,414.31z"/>
		<path style="fill:#BC5949;" d="M459.036,352.208l-191.62,112.711c9.746,1.165,19.986,1.995,30.632,2.463l160.989-94.693V352.208z"
			/>
		<path style="fill:#BC5949;" d="M272.636,121.672c-4.052-0.344-8.06-0.715-11.997-1.148l-84.083,44.844v20.012l101.252-54.007
			L272.636,121.672z"/>
	</g>
	<path style="fill:#CDCDCD;" d="M388.416,61.793c0,14.627-31.62,26.483-70.621,26.483s-70.621-11.855-70.621-26.483
		s31.62-26.483,70.621-26.483S388.416,47.166,388.416,61.793"/>
</g>
</svg>