<?xml version="1.0" encoding="iso-8859-1"?>
<!-- Uploaded to: SVG Repo, www.svgrepo.com, Generator: SVG Repo Mixer Tools -->
<svg height="800px" width="800px" version="1.1" id="Layer_1" xmlns="http://www.w3.org/2000/svg" xmlns:xlink="http://www.w3.org/1999/xlink" 
	 viewBox="0 0 512 512" xml:space="preserve">
<g transform="translate(-1)">
	<path style="fill:#FDC794;" d="M272.17,170.667v-4.741c0-18.015-15.17-33.185-34.133-33.185s-33.185,15.17-33.185,33.185v80.593
		V33.185C204.852,15.17,189.681,0,171.667,0s-33.185,15.17-33.185,33.185v270.222l12.326-10.43l-12.326,10.43
		c-25.6,18.015-28.444,35.081-28.444,66.37l0,0c0,44.563,37.926,75.852,37.926,75.852l0,0v37.926
		c0,16.118,12.326,28.444,28.444,28.444h171.615c15.17,0,27.496-12.326,27.496-28.444V445.63l0,0
		c27.496-36.978,28.444-45.511,28.444-113.778c0-39.822-12.326-86.281-12.326-86.281v-0.948c5.689-17.067-3.793-36.03-20.859-41.719
		c-17.067-5.689-36.03,3.793-41.719,20.859l6.637-18.963c5.689-17.067-2.844-35.081-19.911-40.77l-1.896-0.948
		c-17.067-5.689-35.081,2.844-40.77,19.911l-3.793,10.43L272.17,170.667z"/>
	<g>
		<path style="fill:#F9A671;" d="M326.215,375.467c-4.741,0-9.481-0.948-14.222-1.896c-10.43-3.793-18.963-11.378-24.652-21.807
			c-4.741-10.43-5.689-21.807-1.896-32.237l34.133-98.607c3.793-10.43,11.378-18.963,21.807-24.652
			c10.43-4.741,21.807-5.689,32.237-1.896s18.963,11.378,24.652,21.807c5.689,10.43,5.689,21.807,1.896,32.237l-34.133,98.607
			c-3.793,10.43-11.378,18.963-21.807,24.652C339.489,373.57,332.852,375.467,326.215,375.467z M360.348,210.489
			c-3.793,0-7.585,0.948-10.43,2.844c-5.689,2.844-10.43,7.585-12.326,13.274l-34.133,98.607
			c-1.896,5.689-1.896,12.326,0.948,18.015s7.585,10.43,13.274,12.326l0,0c5.689,1.896,12.326,1.896,18.015-0.948
			c5.689-2.844,10.43-7.585,12.326-13.274l34.133-98.607c1.896-5.689,1.896-12.326-0.948-18.015s-7.585-10.43-13.274-12.326
			C365.089,210.489,363.193,210.489,360.348,210.489z"/>
		<path style="fill:#F9A671;" d="M178.304,391.585c-3.793,0-7.585-1.896-8.533-5.689c-1.896-4.741,0-10.43,4.741-12.326
			c19.911-8.533,82.489-77.748,95.763-109.985c2.844-8.533,0.948-18.963-4.741-23.704c-7.585-5.689-19.911-2.844-35.081,6.637
			c-16.119,10.43-55.941,41.719-86.281,64.474c-3.793,2.844-10.43,2.844-13.274-1.896c-2.844-3.793-2.844-10.43,1.896-13.274
			c30.341-22.756,70.163-54.044,87.23-64.474c31.289-20.859,50.252-11.378,56.889-5.689c12.326,10.43,17.067,28.444,10.43,45.511
			c-14.222,34.133-78.696,108.089-105.244,119.467C180.2,391.585,179.252,391.585,178.304,391.585z"/>
		<path style="fill:#F9A671;" d="M267.43,345.126c-4.741,0-9.481-0.948-13.274-1.896l-1.896-0.948
			c-6.637-2.844-13.274-6.637-18.015-13.274c-2.844-3.793-2.844-8.533,0-12.326c18.015-21.807,31.289-41.719,36.03-53.096
			c4.741-11.378-2.844-29.393-14.222-34.133c-4.741-1.896-6.637-6.637-4.741-11.378l13.274-37.926
			c7.585-21.807,31.289-33.185,53.096-25.6l1.896,0.948c10.43,3.793,18.963,11.378,23.704,20.859
			c4.741,10.43,5.689,21.807,1.896,32.237L307.252,317.63C300.615,333.748,284.496,345.126,267.43,345.126z M254.156,322.37
			c0.948,0.948,2.844,1.896,3.793,1.896l1.896,0.948c12.326,3.793,24.652-1.896,29.393-14.222l37.926-109.037
			c1.896-5.689,1.896-12.326-0.948-17.067c-2.844-5.689-7.585-9.481-13.274-11.378l0,0l-1.896-0.948
			c-12.326-3.793-24.652,1.896-29.393,14.222l-10.43,30.341c15.17,12.326,23.704,36.03,16.119,54.044
			C282.6,283.496,270.274,301.511,254.156,322.37z"/>
		<path style="fill:#F9A671;" d="M204.852,256c-5.689,0-9.481-3.793-9.481-9.481v-94.815c0-5.689,3.793-9.481,9.481-9.481
			s9.481,3.793,9.481,9.481v94.815C214.333,252.207,210.541,256,204.852,256z"/>
	</g>
</g>
</svg>