<?xml version="1.0" encoding="iso-8859-1"?>
<!-- Uploaded to: SVG Repo, www.svgrepo.com, Generator: SVG Repo Mixer Tools -->
<svg version="1.1" id="Layer_1" xmlns="http://www.w3.org/2000/svg" xmlns:xlink="http://www.w3.org/1999/xlink" 
	 viewBox="0 0 512 512" xml:space="preserve">
<g>
	<circle style="fill:#A0EBFF;" cx="256" cy="256" r="256"/>
	<polygon style="fill:#FDC00F;" points="309.248,386.893 203.566,386.893 203.566,219.197 222.551,181.228 290.263,181.228 
		309.248,219.197 	"/>
	<rect x="222.566" y="181.228" style="fill:#FFF466;" width="67.712" height="167.695"/>
	<polygon style="fill:#EB9900;" points="290.263,181.228 256.404,181.228 256.404,386.893 309.248,386.893 309.248,219.197 	"/>
	<rect x="256.41" y="181.228" style="fill:#FDC00F;" width="33.853" height="167.695"/>
	<polygon style="fill:#FDC00F;" points="202.752,386.893 97.07,386.893 97.07,219.197 116.055,181.228 183.767,181.228 
		202.752,219.197 	"/>
	<rect x="116.055" y="181.228" style="fill:#FFF466;" width="67.712" height="167.695"/>
	<polygon style="fill:#EB9900;" points="183.767,181.228 149.914,181.228 149.914,386.893 202.752,386.893 202.752,219.197 	"/>
	<rect x="149.914" y="181.228" style="fill:#FDC00F;" width="33.853" height="167.695"/>
	<polygon style="fill:#FDC00F;" points="256,330.772 150.318,330.772 150.318,163.077 169.303,125.107 237.015,125.107 256,163.077 
			"/>
	<rect x="169.318" y="125.107" style="fill:#FFF466;" width="67.712" height="167.695"/>
	<polygon style="fill:#EB9900;" points="237.015,125.107 203.162,125.107 203.162,330.772 256,330.772 256,163.077 	"/>
	<rect x="203.162" y="125.107" style="fill:#FDC00F;" width="33.853" height="167.695"/>
	<polygon style="fill:#FDC00F;" points="414.925,386.893 309.248,386.893 309.248,219.197 328.233,181.228 395.945,181.228 
		414.925,219.197 	"/>
	<rect x="328.243" y="181.228" style="fill:#FFF466;" width="67.712" height="167.695"/>
	<polygon style="fill:#EB9900;" points="395.945,181.228 362.086,181.228 362.086,386.893 414.93,386.893 414.93,219.197 	"/>
	<rect x="362.086" y="181.228" style="fill:#FDC00F;" width="33.853" height="167.695"/>
	<polygon style="fill:#FDC00F;" points="362.496,330.772 256.814,330.772 256.814,163.077 275.799,125.107 343.511,125.107 
		362.496,163.077 	"/>
	<rect x="275.799" y="125.107" style="fill:#FFF466;" width="67.712" height="167.695"/>
	<polygon style="fill:#EB9900;" points="343.511,125.107 309.652,125.107 309.652,330.772 362.496,330.772 362.496,163.077 	"/>
	<rect x="309.658" y="125.107" style="fill:#FDC00F;" width="33.853" height="167.695"/>
</g>
</svg>