<?xml version="1.0" encoding="UTF-8" standalone="no"?>
<!-- Uploaded to: SVG Repo, www.svgrepo.com, Generator: SVG Repo Mixer Tools -->

<svg
   width="800px"
   height="800px"
   viewBox="0 0 48 48"
   fill="none"
   version="1.1"
   id="svg1"
   sodipodi:docname="one-svgrepo-com.svg"
   inkscape:version="1.4.2 (ebf0e940d0, 2025-05-08)"
   xmlns:inkscape="http://www.inkscape.org/namespaces/inkscape"
   xmlns:sodipodi="http://sodipodi.sourceforge.net/DTD/sodipodi-0.dtd"
   xmlns="http://www.w3.org/2000/svg"
   xmlns:svg="http://www.w3.org/2000/svg">
  <defs
     id="defs1">
    <inkscape:path-effect
       effect="fillet_chamfer"
       id="path-effect3"
       is_visible="true"
       lpeversion="1"
       nodesatellites_param="F,0,0,1,0,0,0,1 @ F,0,0,1,0,0,0,1 @ F,0,0,1,0,0,0,1 @ F,0,0,1,0,0,0,1 @ F,0,0,1,0,0,0,1 @ F,0,0,1,0,0,0,1 @ F,0,0,1,0,0,0,1 @ F,0,0,1,0,0,0,1 @ F,0,0,1,0,0,0,1 @ F,0,0,1,0,0,0,1 @ F,0,0,1,0,0,0,1 @ F,0,0,1,0,0,0,1 @ F,0,0,1,0,0,0,1 @ F,0,0,1,0,0,0,1 @ F,0,0,1,0,0,0,1 @ F,0,0,1,0,0,0,1 @ F,0,0,1,0,0,0,1 @ F,0,0,1,0,0,0,1 @ F,0,0,1,0,0,0,1 @ F,0,0,1,0,0,0,1 @ F,0,0,1,0,0,0,1 @ F,0,0,1,0,0,0,1 @ F,0,0,1,0,0,0,1 @ F,0,0,1,0,0,0,1 @ F,0,0,1,0,0,0,1 @ F,0,0,1,0,0,0,1 @ F,0,0,1,0,0,0,1 | F,0,0,1,0,0,0,1 @ F,0,0,1,0,0,0,1 @ F,0,0,1,0,0,0,1 @ F,0,0,1,0,0,0,1 @ F,0,0,1,0,0,0,1 @ F,0,0,1,0,0,0,1 @ F,0,0,1,0,0,0,1 @ F,0,0,1,0,0,0,1 @ F,0,0,1,0,0,0,1 @ F,0,0,1,0,0,0,1 @ F,0,0,1,0,0,0,1 @ F,0,0,1,0,0,0,1 @ F,0,0,1,0,0,0,1 @ F,0,0,1,0,0,0,1 @ F,0,0,1,0,0,0,1 @ F,0,0,1,0,0,0,1 @ F,0,0,1,0,0,0,1 @ F,0,0,1,0,0,0,1 @ F,0,0,1,0,0,0,1 @ F,0,0,1,0,0,0,1 @ F,0,0,1,0,0,0,1 @ F,0,0,1,0,0,0,1 @ F,0,0,1,0,0,0,1 @ F,0,0,1,0,0,0,1 @ F,0,0,1,0,0,0,1 @ F,0,0,1,0,0,0,1 @ F,0,0,1,0,0,0,1"
       radius="0"
       unit="px"
       method="auto"
       mode="F"
       chamfer_steps="1"
       flexible="false"
       use_knot_distance="true"
       apply_no_radius="true"
       apply_with_radius="true"
       only_selected="false"
       hide_knots="false" />
  </defs>
  <sodipodi:namedview
     id="namedview1"
     pagecolor="#ffffff"
     bordercolor="#000000"
     borderopacity="0.25"
     inkscape:showpageshadow="2"
     inkscape:pageopacity="0.0"
     inkscape:pagecheckerboard="0"
     inkscape:deskcolor="#d1d1d1"
     inkscape:zoom="1.00375"
     inkscape:cx="400"
     inkscape:cy="400"
     inkscape:window-width="1920"
     inkscape:window-height="1011"
     inkscape:window-x="0"
     inkscape:window-y="32"
     inkscape:window-maximized="1"
     inkscape:current-layer="svg1" />
  <g
     id="path1"
     style="opacity:1">
    <path
       style="baseline-shift:baseline;display:inline;overflow:visible;vector-effect:none;fill:#d3d3d3;enable-background:accumulate;stop-color:#000000;stop-opacity:1"
       d="M 11,40 6.9395,31.2023 c 1.3351865,-5.36897 8.705488,-14.752367 11.384997,-7.729529 0,0 2.135273,-9.638504 5.236103,-4.802371 l 1.0264,0.7699 c 0.6219,0.4664 1.5148,0.0761 1.5947,-0.6971 L 27.3708,7.24931 c 0.0826,-0.79926 0.4825,-1.53195 1.11,-2.03391 L 28.6963,5.04293 C 29.4385,4.44919 30.5084,4.50844 31.1805,5.18051 31.7052,5.70522 32,6.41688 32,7.15893 V 29.4194 c 0,0.8385 0.9695,1.305 1.6243,0.7812 L 37,27.5 c 1.6529,-1.3223 3.8749,-0.459 5.255,0.445 0.4386,0.2873 0.5037,0.8815 0.192,1.3032 L 34.5,40 c 0,0 -3.5,4 -11.5,4 -8,0 -11.3333,-2.6667 -12,-4 z"
       id="path2" />
    <path
       style="baseline-shift:baseline;display:inline;overflow:visible;vector-effect:none;fill:#000000;enable-background:accumulate;stop-color:#000000;stop-opacity:1"
       d="m 10.779297,20.914012 c 0,0 -4.9715122,6.54867 -5.7812501,9.804738 l -0.1699219,0.683594 4.3691406,9.464843 0.013672,0.02734 C 9.9020513,42.276651 11.233205,43.368791 13.453125,44.33398 15.673045,45.299174 18.777775,46 23,46 c 4.333333,0 7.555873,-1.095424 9.691406,-2.234375 2.135534,-1.138951 3.314453,-2.449219 3.314453,-2.449219 l 0.05273,-0.06055 L 44.054687,30.4375 C 44.979304,29.186584 44.771634,27.201686 43.351562,26.271484 42.49407,25.709805 41.396425,25.149324 40.074219,24.917969 38.752013,24.686614 37.083618,24.870622 35.75,25.9375 L 34,27.337891 V 7.1582031 C 34,5.8864494 33.494906,4.6648446 32.595703,3.765625 h -0.002 C 31.903263,3.0751687 30.997907,2.6995927 30.074219,2.6484375 29.15053,2.5972823 28.209771,2.8704847 27.447266,3.4804688 l -0.214844,0.1738281 c -1.045171,0.8360704 -1.713957,2.0571617 -1.851563,3.3886718 l -1,9.6718753 c -0.307231,-0.330686 -0.130361,0.991868 -0.5386,0.762796 -0.776773,-0.435865 -2.144261,-2.207233 -2.951223,-1.923723 -1.613922,0.567018 -2.339545,1.711469 -2.892989,2.795692 -0.211177,0.413707 0.357682,0.905097 -0.46875,1.205078 -2.815413,-1.515785 -4.714832,-0.597131 -6.75,1.359325 M 29.814453,6.7089844 C 29.911621,6.8438317 30,6.9893384 30,7.1582031 V 29.419922 c 0,2.380142 3.013935,3.828973 4.873047,2.341797 L 38.25,29.0625 c 0.319282,-0.255422 0.587722,-0.300798 1.134766,-0.205078 0.202442,0.03542 0.427899,0.194238 0.65625,0.28125 l -7.0625,9.55664 c -0.0083,0.01 -0.567218,0.684287 -2.169922,1.539063 C 29.194127,41.095424 26.666667,42 23,42 c -3.777775,0 -6.33972,-0.632499 -7.953125,-1.333984 -1.610297,-0.700134 -2.277556,-1.60365 -2.255859,-1.558594 4.1e-5,8.7e-5 -0.002,-0.002 -0.002,-0.002 L 9.1210938,31.15625 c 0.6840923,-2.145974 2.5345252,-5.326795 4.3554692,-6.988281 0.977071,-0.891511 1.861235,-1.209947 2.082031,-1.205078 0.220795,0.0049 0.388343,-0.109153 0.896484,1.222656 l 1.900699,-0.460519 1.921567,0.181222 c 0,0 0.547248,-2.29651 1.283203,-3.738281 0.190573,-0.373342 0.148683,-0.319375 0.277344,-0.466797 0.02474,0.03558 0.01274,0.0078 0.03906,0.04883 l 0.912628,0.484015 0.597143,0.807001 c 1.785474,1.339034 4.555732,0.128362 4.785156,-2.091797 l 1.1875,-11.4941409 c 0.02759,-0.2670098 0.161265,-0.5098848 0.371094,-0.6777344 z"
       id="path3"
       sodipodi:nodetypes="ccccsssscccssccsccsccccssscccssccsccssssccsccccscccccccc"
       inkscape:original-d="m 10.779297,20.914012 c 0,0 -4.9715122,6.54867 -5.7812501,9.804738 l -0.1699219,0.683594 4.3691406,9.464843 0.013672,0.02734 C 9.9020513,42.276651 11.233205,43.368791 13.453125,44.33398 15.673045,45.299174 18.777775,46 23,46 c 4.333333,0 7.555873,-1.095424 9.691406,-2.234375 2.135534,-1.138951 3.314453,-2.449219 3.314453,-2.449219 l 0.05273,-0.06055 L 44.054687,30.4375 C 44.979304,29.186584 44.771634,27.201686 43.351562,26.271484 42.49407,25.709805 41.396425,25.149324 40.074219,24.917969 38.752013,24.686614 37.083618,24.870622 35.75,25.9375 L 34,27.337891 V 7.1582031 C 34,5.8864494 33.494906,4.6648446 32.595703,3.765625 h -0.002 C 31.903263,3.0751687 30.997907,2.6995927 30.074219,2.6484375 29.15053,2.5972823 28.209771,2.8704847 27.447266,3.4804688 l -0.214844,0.1738281 c -1.045171,0.8360704 -1.713957,2.0571617 -1.851563,3.3886718 l -1,9.6718753 c -0.307231,-0.330686 -0.130361,0.991868 -0.5386,0.762796 -0.776773,-0.435865 -2.144261,-2.207233 -2.951223,-1.923723 -1.613922,0.567018 -2.339545,1.711469 -2.892989,2.795692 -0.211177,0.413707 0.357682,0.905097 -0.46875,1.205078 -2.815413,-1.515785 -4.714832,-0.597131 -6.75,1.359325 M 29.814453,6.7089844 C 29.911621,6.8438317 30,6.9893384 30,7.1582031 V 29.419922 c 0,2.380142 3.013935,3.828973 4.873047,2.341797 L 38.25,29.0625 c 0.319282,-0.255422 0.587722,-0.300798 1.134766,-0.205078 0.202442,0.03542 0.427899,0.194238 0.65625,0.28125 l -7.0625,9.55664 c -0.0083,0.01 -0.567218,0.684287 -2.169922,1.539063 C 29.194127,41.095424 26.666667,42 23,42 c -3.777775,0 -6.33972,-0.632499 -7.953125,-1.333984 -1.610297,-0.700134 -2.277556,-1.60365 -2.255859,-1.558594 4.1e-5,8.7e-5 -0.002,-0.002 -0.002,-0.002 L 9.1210938,31.15625 c 0.6840923,-2.145974 2.5345252,-5.326795 4.3554692,-6.988281 0.977071,-0.891511 1.861235,-1.209947 2.082031,-1.205078 0.220795,0.0049 0.388343,-0.109153 0.896484,1.222656 l 1.900699,-0.460519 1.921567,0.181222 c 0,0 0.547248,-2.29651 1.283203,-3.738281 0.190573,-0.373342 0.148683,-0.319375 0.277344,-0.466797 0.02474,0.03558 0.01274,0.0078 0.03906,0.04883 l 0.912628,0.484015 0.597143,0.807001 c 1.785474,1.339034 4.555732,0.128362 4.785156,-2.091797 l 1.1875,-11.4941409 c 0.02759,-0.2670098 0.161265,-0.5098848 0.371094,-0.6777344 z"
       inkscape:path-effect="#path-effect3" />
  </g>
</svg>
