<?xml version="1.0" encoding="iso-8859-1"?>
<!-- Uploaded to: SVG Repo, www.svgrepo.com, Generator: SVG Repo Mixer Tools -->
<svg height="800px" width="800px" version="1.1" id="Layer_1" xmlns="http://www.w3.org/2000/svg" xmlns:xlink="http://www.w3.org/1999/xlink" 
	 viewBox="0 0 512 512" xml:space="preserve">
<circle style="fill:#324A5E;" cx="256" cy="256" r="256"/>
<path style="fill:#2B3B4E;" d="M437.019,437.019c40.984-40.984,65.153-92.408,72.535-145.71L348.92,130.675L294.519,283.77
	l-30.372,18.02l-118.42-118.419l-53.534,11.309l-7.606,12.014l-7.13,63.514l2.298,4.437l8.47,30.498L292.481,509.4
	C345.366,501.827,396.336,477.703,437.019,437.019z"/>
<path style="fill:#D83E20;" d="M143.712,237.28c0,0,28.286-52.008-19.249-68.97s-69.253,55.024-36.24,136.832
	c0,0-23.692-110.48,19.34-110.906c43.032-0.426,26.434,47.69,26.434,47.69L143.712,237.28z"/>
<path style="fill:#C1321F;" d="M145.215,251.499c0,0,22.54-41.444-15.339-54.96s-55.186,43.848-28.879,109.037
	c0,0-18.878-88.038,15.412-88.378c34.29-0.34,21.064,38.004,21.064,38.004L145.215,251.499z"/>
<g>
	<path style="fill:#D83E20;" d="M369.912,193.733c0,0,12.129,31.491,2.889,36.964c-9.24,5.473-19.621-8.101-19.621-8.101
		l12.414-31.735L369.912,193.733z"/>
	<path style="fill:#D83E20;" d="M354.519,157.517c0.074,0.034,6.946-23.554-14.288-32.74c-21.233-9.187-6.549,11.767-14.965,15.482
		c-8.416,3.715-14.169,1.726-14.012,8.714c0.157,6.989-9.981,1.914-6.484,11.438c3.496,9.525,16.565,13.378,16.565,13.378
		L354.519,157.517z"/>
</g>
<path style="fill:#E6F3FF;" d="M378.285,179.76c0,0-38.369-63.112-78.021,9.945c-30.656,56.485-99.44,116.607-164.776,34.299
	c0,0-24.026,171.563,104.846,164.145C403.003,378.787,328.033,222.846,378.285,179.76z"/>
<path style="fill:#CFDBE6;" d="M135.487,224.004c0,0-24.026,171.563,104.846,164.145c4.099-0.236,8.008-0.59,11.81-1.007V246.887
	C218.724,271.227,176.43,275.582,135.487,224.004z"/>
<g>
	<polygon style="fill:#FFD15D;" points="372.565,172.075 394.514,185.432 367.142,194.667 	"/>
	<path style="fill:#FFD15D;" d="M295.567,266.662c0,0-12.073-6.518-27.543,20.17c-20.246,34.926-56.972,34.332-78.303,15.267
		c0,0,29.605,57.575,77.219,42.394C334.614,322.915,315.583,271.639,295.567,266.662z"/>
</g>
<path style="fill:#F9B54C;" d="M189.721,302.099c0,0,23.55,45.796,62.423,44.928v-41.784
	C231.967,320.531,206.234,316.857,189.721,302.099z"/>
<circle style="fill:#324A5E;" cx="346.333" cy="178.924" r="5.172"/>
</svg>