<?xml version="1.0" encoding="iso-8859-1"?>
<!-- Uploaded to: SVG Repo, www.svgrepo.com, Generator: SVG Repo Mixer Tools -->
<svg height="800px" width="800px" version="1.1" id="Layer_1" xmlns="http://www.w3.org/2000/svg" xmlns:xlink="http://www.w3.org/1999/xlink" 
	 viewBox="0 0 511.994 511.994" xml:space="preserve">
<circle style="fill:#FF8C8A;" cx="255.997" cy="255.997" r="255.997"/>
<path style="fill:#FA7876;" d="M510.312,285.358c-14.056,123.076-115.366,219.639-240.553,226.269L152.214,394.083l15.332-11.99
	l-65.786-65.781l246.615-192.885L510.312,285.358z"/>
<path style="fill:#FFE17D;" d="M187.654,107.805c17.644-1.588,33.038,13.07,34.386,32.743c1.354,19.667-11.856,36.893-29.5,38.481
	c-17.639,1.588-33.038-13.07-34.386-32.737C156.805,126.62,170.009,109.393,187.654,107.805z"/>
<path style="fill:#E3C04D;" d="M190.2,124.491c9.505-0.858,17.8,7.042,18.53,17.644c0.73,10.597-6.39,19.884-15.895,20.737
	c-9.51,0.858-17.806-7.042-18.536-17.644C173.569,134.631,180.689,125.344,190.2,124.491z"/>
<path style="fill:#FFE17D;" d="M324.341,107.805c-17.639-1.588-33.038,13.07-34.386,32.743c-1.348,19.667,11.856,36.893,29.5,38.481
	s33.038-13.07,34.386-32.737C355.195,126.62,341.985,109.393,324.341,107.805z"/>
<path style="fill:#E3C04D;" d="M321.795,124.491c-9.505-0.858-17.8,7.042-18.53,17.644c-0.73,10.597,6.39,19.884,15.901,20.737
	c9.505,0.858,17.806-7.042,18.53-17.644C338.425,134.631,331.305,125.344,321.795,124.491z"/>
<path style="fill:#FAD55C;" d="M255.824,232.04l0.173,0.017l0.173-0.017c59.842-6.195,63.502,15.956,82.043,71.87
	c18.541,55.919-35.651,75.285-82.216,75.285s-100.758-19.366-82.216-75.285C192.328,247.997,195.983,225.845,255.824,232.04z"/>
<path style="fill:#F8F8F8;" d="M210.234,325.672c0-32.074,20.491-58.07,45.763-58.07s45.763,25.996,45.763,58.07
	C301.76,370.549,210.234,370.549,210.234,325.672z"/>
<path style="fill:#FAD55C;" d="M255.997,109.31c41.306,0,74.79,29.935,74.79,66.856c0,36.927-33.484,66.862-74.79,66.862
	s-74.79-29.935-74.79-66.862C181.208,139.244,214.691,109.31,255.997,109.31z"/>
<path style="fill:#FFE17D;" d="M255.997,114.953c37.818,0,68.477,27.405,68.477,61.212c0,33.812-30.659,61.218-68.477,61.218
	s-68.477-27.405-68.477-61.218C187.52,142.359,218.179,114.953,255.997,114.953z"/>
<path style="fill:#F8F8F8;" d="M255.824,176.199c16.435,0,29.768,5.633,29.768,19.895c0,14.263-13.332,31.751-29.768,31.751
	c-16.441,0-29.768-17.488-29.768-31.751C226.057,181.832,239.383,176.199,255.824,176.199z"/>
<g>
	<path style="fill:#68606E;" d="M256.114,180.483c7.544,0,13.661,4.145,13.661,9.26c0,5.109-6.117,9.26-13.661,9.26
		c-7.544,0-13.661-4.151-13.661-9.26C242.453,184.628,248.571,180.483,256.114,180.483z"/>
	<polygon style="fill:#68606E;" points="255.156,198.484 257.513,198.484 257.513,205.254 255.156,205.254 	"/>
	<path style="fill:#68606E;" d="M260.521,209.048c1.883,1.889,4.401,3.048,7.176,3.048c2.775,0,5.293-1.159,7.181-3.048
		c1.287-1.293,2.279-2.936,2.847-4.775h2.251c-0.641,2.808-2.011,5.287-3.866,7.154c-2.234,2.24-5.187,3.605-8.413,3.605
		s-6.173-1.365-8.407-3.605c-1.203-1.203-2.201-2.663-2.925-4.301c-0.73,1.638-1.727,3.098-2.925,4.301
		c-2.234,2.24-5.181,3.605-8.407,3.605c-3.226,0-6.179-1.365-8.413-3.605c-1.855-1.866-3.226-4.346-3.867-7.154h2.251
		c0.568,1.839,1.56,3.482,2.847,4.775c1.889,1.889,4.407,3.048,7.181,3.048c2.775,0,5.293-1.159,7.181-3.048
		c3.176-3.181,2.658-4.229,2.97-8.14l-0.017-0.412h0.05h0.919h0.457h0.919h0.05l-0.017,0.412
		C257.858,204.819,257.34,205.866,260.521,209.048z"/>
</g>
<path style="fill:#F8F8F8;" d="M285.96,151.223c5.828,0,10.552,5.02,10.552,11.215s-4.725,11.221-10.552,11.221
	c-5.833,0-10.558-5.025-10.558-11.221S280.127,151.223,285.96,151.223z"/>
<path style="fill:#68606E;" d="M285.96,154.967c4.073,0,7.382,3.348,7.382,7.471c0,4.128-3.309,7.471-7.382,7.471
	c-4.078,0-7.388-3.343-7.388-7.471C278.572,158.315,281.882,154.967,285.96,154.967z"/>
<g>
	<path style="fill:#F8F8F8;" d="M283.781,156.309c1.521,0,2.747,1.242,2.747,2.78c0,1.532-1.226,2.78-2.747,2.78
		c-1.515,0-2.747-1.248-2.747-2.78C281.035,157.552,282.266,156.309,283.781,156.309z"/>
	<path style="fill:#F8F8F8;" d="M226.04,151.223c5.828,0,10.552,5.02,10.552,11.215s-4.724,11.221-10.552,11.221
		c-5.833,0-10.558-5.025-10.558-11.221S220.207,151.223,226.04,151.223z"/>
</g>
<path style="fill:#68606E;" d="M226.04,154.967c4.078,0,7.382,3.348,7.382,7.471c0,4.128-3.304,7.471-7.382,7.471
	s-7.382-3.343-7.382-7.471C218.658,158.315,221.962,154.967,226.04,154.967z"/>
<path style="fill:#FFFFFF;" d="M223.867,156.309c1.515,0,2.747,1.242,2.747,2.78c0,1.532-1.231,2.78-2.747,2.78
	c-1.521,0-2.752-1.248-2.752-2.78C221.115,157.552,222.346,156.309,223.867,156.309z"/>
<g>
	<path style="fill:#FFE17D;" d="M106.808,285.386l68.722-42.247c9.393-5.777,26.832-14.313,33.634-5.9
		c-2.34,18.068-6.858,35.857-13.8,40.76l-65.062,42.966c-9.783,6.463-23.076,3.744-29.539-6.039l0,0
		C92.473,306.629,96.819,291.526,106.808,285.386z"/>
	<path style="fill:#FFE17D;" d="M405.192,285.386l-68.728-42.247c-9.393-5.777-26.832-14.313-33.634-5.9
		c2.346,18.068,6.858,35.857,13.8,40.76l65.062,42.966c9.783,6.463,23.076,3.744,29.539-6.039l0,0
		C419.521,306.629,415.181,291.526,405.192,285.386z"/>
</g>
<path style="fill:#FFFFFF;" d="M247.83,248.799l-10.168,17.823l8.268-3.031l3.672,5.939l7.02-20.319L247.83,248.799z
	 M266.661,248.799l10.168,17.823l-8.273-3.031l-3.666,5.939l-7.02-20.319L266.661,248.799z"/>
<path style="fill:#F8F8F8;" d="M247.83,248.799l-5.36,9.393l12.407-3.928l1.744-5.053L247.83,248.799z M259.602,254.237l11.85,2.958
	l-4.791-8.396l-8.792,0.412L259.602,254.237z"/>
<path style="fill:#FFFFFF;" d="M257.245,243.568l-0.128-0.072l-0.006-0.162l-0.362-0.045c-3.07-1.694-19.594-10.513-26.013-7.989
	c-3.248,1.281-3.248,19.633,0,20.909c6.418,2.529,22.943-6.296,26.013-7.984l0.362-0.05l0.006-0.156l0.128-0.072l0.061-2.19
	L257.245,243.568z M257.245,247.947l-0.061-2.19l0.061-2.19l0.123-0.072l0.006-0.162l0.368-0.045
	c3.07-1.694,19.594-10.513,26.007-7.989c3.248,1.281,3.248,19.633,0,20.909c-6.413,2.529-22.937-6.296-26.007-7.984l-0.368-0.05
	l-0.006-0.156L257.245,247.947z"/>
<path style="fill:#FA7876;" d="M252.972,239.807h8.006c1.07,0,1.933,0.864,1.933,1.933v7.939c0,1.07-0.864,1.933-1.933,1.933h-8.006
	c-1.064,0-1.933-0.864-1.933-1.933v-7.939C251.039,240.67,251.908,239.807,252.972,239.807z"/>
<path style="fill:#FF8C8A;" d="M252.972,239.801h8.006c1.064,0,1.933,0.875,1.933,1.939v4.017h-11.872v-4.017
	C251.039,240.676,251.908,239.801,252.972,239.801z"/>
<path style="fill:#FFE17D;" d="M311.989,330.369c-20.33,16.915-25.405,44.337-11.332,61.251
	c14.073,16.915,41.963,16.92,62.293,0.006c20.33-16.909,25.4-44.337,11.327-61.251C360.209,313.46,332.319,313.454,311.989,330.369z
	"/>
<g>
	<path style="fill:#FAD55C;" d="M344.23,328.703c-1.95,4.123-0.747,8.775,2.68,10.396c3.432,1.621,7.789-0.407,9.739-4.529
		c1.944-4.117,0.747-8.775-2.685-10.391C350.537,322.558,346.18,324.58,344.23,328.703z"/>
	<path style="fill:#FAD55C;" d="M360.783,337.539c-3.343,3.042-4.006,7.761-1.471,10.547c2.529,2.78,7.287,2.568,10.63-0.474
		c3.343-3.042,4.006-7.761,1.471-10.541C368.884,334.291,364.126,334.497,360.783,337.539z"/>
	<path style="fill:#FAD55C;" d="M365.413,356.677c-3.343,3.042-4,7.761-1.471,10.541c2.529,2.786,7.287,2.574,10.636-0.468
		c3.343-3.042,4-7.761,1.471-10.541C373.513,353.423,368.755,353.635,365.413,356.677z"/>
</g>
<path style="fill:#FFE17D;" d="M200.005,330.369c20.33,16.915,25.405,44.337,11.332,61.251
	c-14.073,16.915-41.958,16.92-62.288,0.006c-20.33-16.909-25.405-44.337-11.332-61.251
	C151.791,313.46,179.676,313.454,200.005,330.369z"/>
<g>
	<path style="fill:#FAD55C;" d="M197.526,349.735c12.107,10.073,15.126,26.397,6.747,36.47
		c-8.379,10.073-24.982,10.073-37.083,0.006c-12.107-10.073-15.126-26.397-6.747-36.47S185.425,339.668,197.526,349.735z"/>
	<path style="fill:#FAD55C;" d="M167.764,328.703c1.95,4.123,0.747,8.775-2.68,10.396c-3.426,1.621-7.789-0.407-9.733-4.529
		c-1.95-4.117-0.747-8.775,2.68-10.391C161.457,322.558,165.82,324.58,167.764,328.703z"/>
	<path style="fill:#FAD55C;" d="M151.217,337.539c3.343,3.042,4,7.761,1.471,10.547c-2.529,2.78-7.293,2.568-10.636-0.474
		c-3.343-3.042-4-7.761-1.471-10.541S147.874,334.497,151.217,337.539z"/>
	<path style="fill:#FAD55C;" d="M146.587,356.677c3.343,3.042,4,7.761,1.471,10.541c-2.535,2.786-7.293,2.574-10.636-0.468
		s-4.006-7.761-1.471-10.541C138.481,353.423,143.245,353.635,146.587,356.677z"/>
	<path style="fill:#FAD55C;" d="M311.989,330.369c-20.33,16.915-25.405,44.337-11.332,61.251
		c14.073,16.915,41.963,16.92,62.293,0.006c0.88-0.735,1.738-1.488,2.563-2.262c-20.241,16.107-47.457,15.834-61.301-0.808
		c-13.46-16.185-9.404-41.974,8.769-58.989C312.647,329.829,312.318,330.096,311.989,330.369z"/>
	<path style="fill:#FAD55C;" d="M314.468,349.735c-12.107,10.073-15.126,26.397-6.747,36.47
		c8.379,10.073,24.982,10.073,37.088,0.006c12.101-10.073,15.121-26.397,6.747-36.47
		C343.177,339.668,326.575,339.668,314.468,349.735z"/>
	<path style="fill:#FAD55C;" d="M200.005,330.369c20.335,16.915,25.405,44.337,11.332,61.251
		c-14.073,16.915-41.958,16.92-62.288,0.006c-0.886-0.735-1.738-1.488-2.563-2.262c20.235,16.107,47.457,15.834,61.301-0.808
		c13.46-16.185,9.399-41.974-8.769-58.989C199.348,329.829,199.682,330.096,200.005,330.369z"/>
</g>
<path style="fill:#FF8C8A;" d="M255.997,308.847c0-7.493-6.078-13.572-13.577-13.572c-7.499,0-13.577,6.078-13.577,13.572
	c0,18.09,20.592,26.18,27.155,37.584c6.563-11.405,27.155-19.494,27.155-37.584c0-7.493-6.078-13.572-13.577-13.572
	S255.997,301.353,255.997,308.847z"/>
<g>
	<path style="fill:#FA7876;" d="M254.248,343.857c0.657,0.841,1.242,1.699,1.749,2.574c6.563-11.405,27.155-19.494,27.155-37.584
		c0-7.493-6.078-13.577-13.577-13.577c-0.591,0-1.176,0.039-1.749,0.111c6.674,0.858,11.833,6.563,11.833,13.466
		C279.659,325.544,262.109,333.728,254.248,343.857z"/>
	<path style="fill:#FA7876;" d="M256.014,308.201c-0.852-9.566-8.519-12.931-13.594-12.931c-0.591,0-1.176,0.039-1.749,0.111
		c6.674,0.858,13.594,12.574,13.594,19.483C254.265,312.44,254.9,310.167,256.014,308.201z"/>
</g>
</svg>