<?xml version="1.0" encoding="iso-8859-1"?>
<!-- Uploaded to: SVG Repo, www.svgrepo.com, Generator: SVG Repo Mixer Tools -->
<svg version="1.1" id="Layer_1" xmlns="http://www.w3.org/2000/svg" xmlns:xlink="http://www.w3.org/1999/xlink" 
	 viewBox="0 0 512 512" xml:space="preserve">
<g>
	<polyline style="fill:#6B7E87;" points="88.455,124.358 136.325,124.358 136.325,76.488 8.325,76.488 8.325,124.358 
		56.195,124.358 	"/>
	<rect x="375.852" y="76.217" style="fill:#6B7E87;" width="127.844" height="47.943"/>
</g>
<path style="fill:#A00449;" d="M176.097,387.841h-63.923V180.092c0-17.652,14.31-31.962,31.961-31.962l0,0
	c17.652,0,31.961,14.31,31.961,31.962V387.841z"/>
<rect x="112.172" y="363.874" style="fill:#F2F2F2;" width="63.927" height="23.977"/>
<rect x="112.172" y="339.897" style="fill:#6B7E87;" width="63.927" height="23.977"/>
<path style="fill:#ED1E79;" d="M144.135,148.293c17.652,0,31.735,14.148,31.735,31.799v255.42h223.74v-255.42
	c0-17.652-14.092-31.799-31.745-31.799H144.65"/>
<rect x="176.099" y="387.84" style="fill:#BDCCD4;" width="223.729" height="23.977"/>
<rect x="176.099" y="411.817" style="fill:#FFFFFF;" width="223.729" height="23.977"/>
<polygon points="80.13,187.837 80.13,107.707 95.74,107.707 95.74,92.098 47.87,92.098 47.87,107.707 64.52,107.707 64.52,203.447 
	160.26,203.447 160.26,187.837 "/>
<g>
	<rect x="104.065" y="92.098" style="fill:#FFFFFF;" width="15.61" height="15.61"/>
	<rect x="23.935" y="92.098" style="fill:#FFFFFF;" width="16.65" height="15.61"/>
</g>
<polygon points="143.61,131.642 88.455,131.642 88.455,116.033 128,116.033 128,83.772 15.61,83.772 15.61,116.033 56.195,116.033 
	56.195,131.642 0,131.642 0,68.163 143.61,68.163 "/>
<polygon points="464.13,92.098 416.26,92.098 416.26,107.707 431.87,107.707 431.87,187.837 416.26,187.837 416.26,203.447 
	447.48,203.447 447.48,107.707 464.13,107.707 "/>
<g>
	<rect x="392.325" y="92.098" style="fill:#FFFFFF;" width="15.61" height="15.61"/>
	<rect x="471.415" y="92.098" style="fill:#FFFFFF;" width="16.65" height="15.61"/>
</g>
<polygon points="512,131.642 455.805,131.642 455.805,116.033 496.39,116.033 496.39,83.772 384,83.772 384,116.033 
	423.545,116.033 423.545,131.642 368.39,131.642 368.39,68.163 512,68.163 "/>
<rect x="208.13" y="380.358" width="15.61" height="15.61"/>
<rect x="232.065" y="380.358" width="15.61" height="15.61"/>
<rect x="256" y="380.358" width="15.61" height="15.61"/>
<rect x="279.935" y="380.358" width="15.61" height="15.61"/>
<rect x="303.87" y="380.358" width="15.61" height="15.61"/>
<rect x="327.805" y="380.358" width="15.61" height="15.61"/>
<rect x="351.74" y="380.358" width="15.61" height="15.61"/>
<path d="M367.865,139.967l-223.214,0.268c-22.066-0.117-40.024,17.423-40.024,39.276h15.61c0-12.488,10.845-23.867,24.174-23.867
	c13.331,0,24.174,11.077,24.174,24.446v263.747h239.35V180.092C407.935,157.967,389.96,139.967,367.865,139.967z M367.865,155.577
	c13.259,0,24.461,11.227,24.461,24.515v200.266h-16.65v15.61h16.65v8.325h-208.13v-8.325h15.61v-15.61h-15.61V180.092
	c0-9.236-3.152-17.748-8.436-24.515H367.865z M184.195,428.228v-8.325h208.13v8.325H184.195z"/>
<polygon points="160.26,372.033 160.26,356.423 119.675,356.423 119.675,348.098 136.325,348.098 136.325,332.488 119.675,332.488 
	119.675,211.772 104.065,211.772 104.065,395.967 160.26,395.967 160.26,380.358 119.675,380.358 119.675,372.033 "/>
<rect x="144.65" y="332.488" width="15.61" height="15.61"/>
<g>
	<rect x="199.805" y="172.228" style="fill:#FFFFFF;" width="104.065" height="15.61"/>
	<rect x="319.48" y="172.228" style="fill:#FFFFFF;" width="16.65" height="15.61"/>
</g>
</svg>