<?xml version="1.0" encoding="iso-8859-1"?>
<!-- Uploaded to: SVG Repo, www.svgrepo.com, Generator: SVG Repo Mixer Tools -->
<svg height="800px" width="800px" version="1.1" id="Layer_1" xmlns="http://www.w3.org/2000/svg" xmlns:xlink="http://www.w3.org/1999/xlink" 
	 viewBox="0 0 511.999 511.999" xml:space="preserve">
<polygon style="fill:#AA8B65;" points="451.711,46.719 409.182,83.387 409.182,7.59 96.769,7.59 96.769,301.439 8.059,256.001 
	8.059,334.163 96.769,389.361 97.461,503.47 409.875,503.47 409.182,193.704 503.939,98.947 "/>
<g>
	<path style="opacity:0.3;fill:#564531;enable-background:new    ;" d="M409.178,193.707V83.391V7.594h-44.875v39.442v110.317
		l0.493,220.319c0.11,49.367-39.879,89.447-89.247,89.447H97.237l0.221,36.355l312.413-0.001L409.178,193.707z"/>
	<polygon style="opacity:0.41;fill:#564531;enable-background:new    ;" points="61.925,283.624 61.925,367.712 96.774,389.396 
		96.774,301.475 	"/>
	<polygon style="opacity:0.4;fill:#564531;enable-background:new    ;" points="435.534,60.667 409.215,83.387 409.182,193.704 
		435.534,167.335 	"/>
</g>
<path d="M509.307,93.58l-52.227-52.228c-2.811-2.809-7.314-2.974-10.323-0.382l-29.985,25.852V7.59c0-4.193-3.397-7.59-7.59-7.59
	H96.768c-4.193,0-7.59,3.397-7.59,7.59v281.434l-77.659-39.779c-2.35-1.205-5.163-1.099-7.419,0.278
	c-2.256,1.379-3.631,3.832-3.631,6.476v78.163c0,2.622,1.354,5.059,3.58,6.444l85.128,52.97v110.832c0,4.193,3.397,7.59,7.59,7.59
	h312.413c4.193,0,7.59-3.397,7.59-7.59V196.848l23.418-23.417c0.002-0.002,0.003-0.003,0.005-0.005l69.112-69.111
	C512.271,101.349,512.271,96.544,509.307,93.58z M89.178,306.079v17.827c-20.459-4.046-53.996-33.49-73.529-54.479v-1.012
	L89.178,306.079z M15.649,329.946V291.12c17.704,17.345,49.072,44.746,73.529,48.086v36.493L15.649,329.946z M403.815,188.337
	c-1.423,1.424-2.222,3.354-2.222,5.368V496.82h-27.562V363.47c0-4.193-3.397-7.59-7.59-7.59c-4.193,0-7.59,3.397-7.59,7.59v133.35
	h-41.069V313.019c8.944-9.087,39.789-42.792,44.62-79.993c0.539-4.156-2.392-7.964-6.55-8.504c-4.156-0.549-7.964,2.391-8.504,6.55
	c-4.838,37.261-42.003,72.915-42.374,73.267c-1.514,1.433-2.372,3.427-2.372,5.511v186.97H263.59V341.809
	c0-4.193-3.397-7.59-7.59-7.59c-4.193,0-7.59,3.397-7.59,7.59V496.82h-37.366v-57.993c0-4.193-3.397-7.59-7.59-7.59
	s-7.59,3.397-7.59,7.59v57.993h-37.366V367.76c0-4.193-3.397-7.59-7.59-7.59s-7.59,3.397-7.59,7.59v129.06h-38.959V15.18h50.525
	v129.079c0,4.193,3.397,7.59,7.59,7.59s7.59-3.397,7.59-7.59V15.18h38.857v89.101c-3.041,13.815-32.766,158.131,44.359,187.742
	c0.896,0.343,1.815,0.506,2.719,0.506c3.051,0,5.928-1.853,7.088-4.871c1.502-3.913-0.452-8.303-4.365-9.806
	c-67.07-25.75-35.142-169.594-34.81-171.044c0.125-0.554,0.19-1.12,0.19-1.688V15.18h51.018v35.575c0,4.193,3.397,7.59,7.59,7.59
	s7.59-3.397,7.59-7.59V15.18h63.82v129.079c0,4.193,3.397,7.59,7.59,7.59s7.59-3.397,7.59-7.59V15.18h32.294v68.207
	c0,2.968,1.731,5.664,4.429,6.9c2.698,1.236,5.869,0.786,8.117-1.152l36.948-31.857c-6.227,15-23.097,59.899-23.824,107.61
	L403.815,188.337z M443.351,148.801c3.165-33.767,13.628-64.725,19.569-80.141l30.286,30.286L443.351,148.801z"/>
<path d="M296.292,95.235c-8.346-7.778-15.313-6.081-18.718-4.374c-20.36,10.18-37.081,65.926-40.226,76.996
	c-1.146,4.032,1.195,8.23,5.227,9.375c4.028,1.142,8.229-1.195,9.375-5.225c6.949-24.441,21.302-60.996,31.869-67.272
	c1.587,0.772,5.935,4.532,11.475,15.259c15.289,29.61,24.344,79.524,12.307,108.533c-6.986,16.838-16.347,26.084-25.675,25.332
	c-10.771-0.851-21.316-14.043-25.644-32.079c-0.979-4.075-5.074-6.584-9.152-5.61c-4.076,0.979-6.588,5.076-5.61,9.152
	c5.936,24.736,21.693,42.285,39.209,43.67c0.706,0.057,1.458,0.089,2.253,0.089c9.972,0,26.376-5.177,38.641-34.737
	c11.15-26.874,6.04-60.985,2.002-78.926C317.617,128.735,306.889,105.112,296.292,95.235z"/>
<path d="M157.954,240.268c-1.557-3.893-5.98-5.783-9.866-4.227c-3.892,1.556-5.785,5.973-4.228,9.865
	c1.055,2.635,26.086,64.805,50.043,88.76c20.031,20.033,14.235,57.159,14.176,57.52c-0.689,4.135,2.105,8.045,6.239,8.736
	c0.423,0.07,0.843,0.104,1.257,0.104c3.644,0,6.858-2.631,7.479-6.343c0.305-1.833,7.181-45.151-18.416-70.75
	C182.88,302.177,158.202,240.884,157.954,240.268z"/>
<path d="M130.172,89.428c-4.193,0-7.59,3.397-7.59,7.59v82.237c0,4.193,3.397,7.59,7.59,7.59c4.193,0,7.59-3.397,7.59-7.59V97.018
	C137.762,92.827,134.365,89.428,130.172,89.428z"/>
</svg>