<?xml version="1.0" encoding="iso-8859-1"?>
<!-- Uploaded to: SVG Repo, www.svgrepo.com, Generator: SVG Repo Mixer Tools -->
<svg height="800px" width="800px" version="1.1" id="Layer_1" xmlns="http://www.w3.org/2000/svg" xmlns:xlink="http://www.w3.org/1999/xlink" 
	 viewBox="0 0 503.467 503.467" xml:space="preserve">
<g transform="translate(7 1)">
	<g>
		<polygon style="fill:#F2EDDA;" points="176.467,225.133 210.6,225.133 210.6,191 176.467,191 		"/>
		<polygon style="fill:#F2EDDA;" points="210.6,225.133 244.733,225.133 244.733,191 210.6,191 		"/>
	</g>
	<g>
		<polygon style="fill:#AE938D;" points="295.933,276.333 282.28,361.667 208.04,361.667 193.533,276.333 244.733,276.333 		"/>
		<polygon style="fill:#AE938D;" points="91.133,3.267 48.467,122.733 441,122.733 398.333,3.267 		"/>
	</g>
	<g transform="translate(6 22)">
		<path style="fill:#F2EDDA;" d="M366.733,169c9.387,0,17.067,7.68,17.067,17.067s-7.68,17.067-17.067,17.067h-128V169H366.733z"/>
		<polygon style="fill:#FFD0A1;" points="276.28,339.667 366.733,339.667 383.8,476.2 93.667,476.2 110.733,339.667 202.04,339.667 
					"/>
		<path style="fill:#F2EDDA;" d="M170.467,169v34.133h-59.733c-9.387,0-17.067-7.68-17.067-17.067S101.347,169,110.733,169H170.467z
			"/>
	</g>
</g>
<path style="fill:#51565F;" d="M396.8,503.467L396.8,503.467H106.667l0,0H89.6c-2.56,0-4.267-1.707-4.267-4.267
	c0-2.56,1.707-4.267,4.267-4.267h13.653l16.213-133.12V260.267c0-2.56,1.707-4.267,4.267-4.267c2.56,0,4.267,1.707,4.267,4.267
	v102.4l-16.213,132.267h280.747l-16.213-128H157.867c-2.56,0-4.267-1.707-4.267-4.267s1.707-4.267,4.267-4.267h217.6v-98.133
	c0-2.56,1.707-4.267,4.267-4.267c2.56,0,4.267,1.707,4.267,4.267v102.4l16.213,132.267H448c2.56,0,4.267,1.707,4.267,4.267
	c0,2.56-1.707,4.267-4.267,4.267H396.8L396.8,503.467z M499.2,503.467h-17.067c-2.56,0-4.267-1.707-4.267-4.267
	c0-2.56,1.707-4.267,4.267-4.267H499.2c2.56,0,4.267,1.707,4.267,4.267C503.467,501.76,501.76,503.467,499.2,503.467z
	 M55.467,503.467h-51.2C1.707,503.467,0,501.76,0,499.2c0-2.56,1.707-4.267,4.267-4.267h51.2c2.56,0,4.267,1.707,4.267,4.267
	C59.733,501.76,58.027,503.467,55.467,503.467z M294.4,332.8C294.4,332.8,293.547,332.8,294.4,332.8
	c-3.413-0.853-4.267-2.56-4.267-5.12l7.68-46.08h-92.16l7.68,46.08c0,2.56-0.853,4.267-3.413,5.12c-2.56,0-4.267-0.853-5.12-3.413
	l-8.533-51.2c0-0.853,0-2.56,0.853-3.413c0.853-0.853,1.707-1.707,3.413-1.707h46.933V230.4H123.733
	c-11.947,0-21.333-9.387-21.333-21.333c0-10.24,7.68-18.773,17.067-20.48v-30.72c0-2.56,1.707-4.267,4.267-4.267
	c2.56,0,4.267,1.707,4.267,4.267v29.867h247.467v-29.867c0-2.56,1.707-4.267,4.267-4.267c2.56,0,4.267,1.707,4.267,4.267v30.72
	c8.533,1.707,15.36,8.533,17.067,16.213H448c2.56,0,4.267,1.707,4.267,4.267v29.867H499.2c2.56,0,4.267,1.707,4.267,4.267
	s-1.707,4.267-4.267,4.267H448c-2.56,0-4.267-1.707-4.267-4.267v-29.867h-42.667c-1.707,9.387-10.24,17.067-21.333,17.067H256
	v42.667h46.933c0.853,0,2.56,0.853,3.413,1.707c0.853,0.853,0.853,2.56,0.853,3.413l-8.533,51.2
	C298.667,331.093,296.107,332.8,294.4,332.8z M256,221.867h123.733c6.827,0,12.8-5.973,12.8-12.8c0-6.827-5.973-12.8-12.8-12.8H256
	V221.867z M221.867,221.867h25.6v-25.6h-25.6V221.867z M187.733,221.867h25.6v-25.6h-25.6V221.867z M123.733,196.267
	c-6.827,0-12.8,5.973-12.8,12.8c0,6.827,5.973,12.8,12.8,12.8H179.2v-25.6H123.733z M448,128H55.467
	c-1.707,0-2.56-0.853-3.413-1.707c-0.853-0.853-0.853-2.56-0.853-4.267L93.867,2.56C94.72,0.853,96.427,0,98.133,0h307.2
	c1.707,0,3.413,0.853,4.267,2.56l42.667,119.467c0.853,1.707,0,2.56-0.853,4.267C450.56,127.147,449.707,128,448,128z
	 M61.44,119.467h380.587L402.773,8.533H101.547L61.44,119.467z"/>
</svg>