<?xml version="1.0" encoding="iso-8859-1"?>
<!-- Uploaded to: SVG Repo, www.svgrepo.com, Generator: SVG Repo Mixer Tools -->
<svg height="800px" width="800px" version="1.1" id="Capa_1" xmlns="http://www.w3.org/2000/svg" xmlns:xlink="http://www.w3.org/1999/xlink" 
	 viewBox="0 0 155.301 155.301" xml:space="preserve">
<g>
	<circle style="fill:#98E2ED;" cx="77.65" cy="77.65" r="77.65"/>
	<g>
		<g>
			<path style="fill:#B0B0B2;" d="M107.512,113.668c-0.038-0.121-0.062-0.232-0.088-0.346c-1.557,0.914-3.045,1.156-4.432,0.707
				c-1.937-0.625-3.704-2.56-5.081-5.521c-0.598,0.803-1.244,1.568-1.931,2.295c1.647,3.063,3.742,5.063,6.166,5.846
				c0.729,0.234,1.477,0.352,2.233,0.352c1.451,0,2.938-0.434,4.401-1.283C108.265,115.338,107.827,114.684,107.512,113.668z"/>
			<path style="fill:#404040;" d="M107.424,113.322c0.026,0.113,0.05,0.225,0.088,0.346c0.315,1.016,0.753,1.67,1.269,2.049
				c2.591,1.902,7.196-3.32,8.808-6.742C117.588,108.975,106.081,107.621,107.424,113.322z"/>
			<path style="fill:#404040;" d="M65.752,124.432c-3.032,0-5.645,1.74-6.924,4.275c-0.531,1.049-0.83,2.234-0.83,3.494v0.992h15
				v-0.992c0-1.793-0.353-3.439-1.372-4.754C70.204,125.615,68.248,124.432,65.752,124.432z"/>
			<path style="fill:#404040;" d="M89.428,124.432c-2.748,0-5.487,1.43-6.87,3.584c-0.774,1.209-1.56,2.643-1.56,4.186v0.992h17
				v-0.992c0-1.959-1.132-3.744-2.329-5.111C94.243,125.463,91.759,124.432,89.428,124.432z"/>
			<path style="fill:#FFFFFF;" d="M54.547,103.877c-0.209-0.459-0.403-0.926-0.585-1.398
				C54.144,102.951,54.339,103.418,54.547,103.877z"/>
			<path style="fill:#FFFFFF;" d="M55.434,105.654c-0.274-0.5-0.531-1.01-0.775-1.529C54.902,104.645,55.159,105.154,55.434,105.654
				z"/>
			<path style="fill:#FFFFFF;" d="M53.229,100.25c-0.103-0.367-0.196-0.738-0.283-1.113C53.031,99.512,53.126,99.883,53.229,100.25z
				"/>
			<path style="fill:#FFFFFF;" d="M53.876,102.26c-0.187-0.498-0.354-1.008-0.51-1.522C53.521,101.252,53.689,101.76,53.876,102.26z
				"/>
			<path style="fill:#FFFFFF;" d="M99.675,105.773l-6.22,2.588l8.809-9.357c0.401-1.791,0.621-3.648,0.621-5.559
				c0-1.996-0.239-3.936-0.677-5.801c2.025-2.457,3.684-5.23,4.904-8.225l-7.988-5.035c0,0,6.414,0.894,9.267,1.228
				c0.309-1.16,0.554-2.346,0.732-3.553l-10.891-2.031l11.215-1.967c0.006-0.223,0.018-0.441,0.018-0.664
				c0-2.146-0.216-4.238-0.619-6.266c0.217,1.086,0.375,2.193,0.479,3.318l-12.697,2.457c0,0,9.61-4.588,12.213-5.803
				c-0.974-4.865-3.06-9.328-5.976-13.119L90.668,57.08l9.8-11.865c-1.132-1.168-2.35-2.25-3.648-3.234
				c0.413-0.33,0.826-0.684,1.226-1.063c1.543-1.463,11.624-10.773,4.517-16.734c-7.105-5.959-13.065,4.063-14.898,9.965
				c-0.318,1.021-0.638,1.916-0.948,2.707c-0.867-0.258-1.749-0.486-2.646-0.672l-0.029,0.197c-3.635,0.506-6.45,13.535-6.45,13.535
				s-2.816-13.029-6.451-13.535l-0.029-0.197c-0.904,0.188-1.793,0.416-2.668,0.68c-0.313-0.793-0.634-1.691-0.951-2.715
				c-1.834-5.902-7.794-15.924-14.899-9.965c-7.105,5.961,2.975,15.272,4.518,16.734c0.403,0.383,0.819,0.74,1.237,1.072
				c-1.293,0.982-2.506,2.063-3.635,3.225l9.8,11.865l-12.196-9.094c0.364-0.475,0.742-0.934,1.13-1.385
				c-3.509,4.07-6.011,9.033-7.106,14.504c2.604,1.215,12.214,5.803,12.214,5.803l-12.696-2.457
				c0.103-1.127,0.263-2.234,0.478-3.324c-0.404,2.029-0.62,4.125-0.62,6.271c0,0.223,0.013,0.441,0.018,0.664l11.215,1.967
				l-10.889,2.031c0.177,1.207,0.423,2.393,0.731,3.553c2.852-0.334,9.267-1.228,9.267-1.228l-7.988,5.035
				c-0.237-0.584-0.457-1.178-0.66-1.777c1.248,3.682,3.145,7.064,5.563,10.002c-0.437,1.865-0.675,3.805-0.675,5.801
				c0,1.818,0.195,3.59,0.559,5.301l9.051,9.615l-6.369-2.688c0.942,1.705,1.462,3.291,3.462,4.727v7.193l7.602,2.639l-7.602,1.375
				v7.1c0-2.535,3.867-4.275,6.898-4.275c2.496,0,4.102,1.184,6.102,3.016v-9.359c2,0.422,3.738,0.652,5.701,0.652
				c1.818,0,2.299-0.195,5.299-0.561v9.836c1-2.154,3.602-3.584,6.348-3.584c2.332,0,3.652,1.031,5.652,2.658v-5.482l-7.602-1.375
				l7.602-2.639v-5.887c-1,0.768-1.51,1.484-2.404,2.143l-3.004,0.398l6.051-3.123c0.103-0.107,0.221-0.215,0.323-0.322
				c0.686-0.727,1.341-1.492,1.938-2.295C98.548,107.637,99.144,106.723,99.675,105.773z M98.045,29.914
				c2.914,1.377-0.525,7.795-6.485,10.545C91.56,40.459,95.131,28.539,98.045,29.914z M86.962,64.154
				c2.79-0.101,5.13,2.08,5.23,4.867c0.1,2.789-2.08,5.131-4.87,5.23c-2.788,0.1-5.129-2.08-5.229-4.869
				C81.993,66.594,84.174,64.252,86.962,64.154z M57.108,29.914c2.914-1.375,6.485,10.545,6.485,10.545
				C57.634,37.709,54.194,31.291,57.108,29.914z M68.217,64.154c2.788,0.098,4.968,2.44,4.868,5.229
				c-0.1,2.789-2.44,4.969-5.229,4.869c-2.79-0.1-4.969-2.441-4.869-5.23C63.088,66.234,65.428,64.053,68.217,64.154z
				 M62.635,113.85c-1.188-0.875-2.295-1.854-3.313-2.916l6.383,3.314L62.635,113.85z M77.795,105.459
				c-16.724,0-19.678-9.982-19.678-13.789c0-9.902,11.893-14.283,19.678-14.283c7.785,0,19.679,4.381,19.679,14.283
				C97.474,95.477,94.518,105.459,77.795,105.459z"/>
			<path style="fill:#FFFFFF;" d="M46.054,72.035c-0.092-0.623-0.161-1.256-0.214-1.893C45.895,70.779,45.962,71.412,46.054,72.035z
				"/>
			<path style="fill:#FFFFFF;" d="M47.343,77.453c-0.2-0.6-0.385-1.205-0.55-1.82C46.958,76.248,47.144,76.854,47.343,77.453z"/>
			<path style="fill:#FFFFFF;" d="M101.738,46.605c0.387,0.449,0.763,0.91,1.126,1.381
				C102.502,47.516,102.126,47.055,101.738,46.605z"/>
			<path style="fill:#FFFFFF;" d="M100.474,45.223c0.411,0.422,0.808,0.857,1.193,1.301
				C101.281,46.08,100.885,45.645,100.474,45.223z"/>
			<path style="fill:#FFFFFF;" d="M53.507,46.527c0.39-0.447,0.79-0.887,1.204-1.313C54.297,45.641,53.896,46.08,53.507,46.527z"/>
			<path style="fill:#FFFFFF;" d="M45.827,69.986c-0.05-0.637-0.083-1.277-0.097-1.924C45.744,68.709,45.776,69.35,45.827,69.986z"
				/>
			<path style="fill:#FFFFFF;" d="M107.772,77.645c-0.204,0.6-0.423,1.191-0.66,1.775C107.35,78.836,107.569,78.244,107.772,77.645z
				"/>
			<path style="fill:#FFFFFF;" d="M108.384,75.635c-0.163,0.613-0.347,1.219-0.547,1.816
				C108.037,76.854,108.221,76.248,108.384,75.635z"/>
			<path style="fill:#FFFFFF;" d="M109.447,68.063c-0.013,0.646-0.047,1.287-0.096,1.924
				C109.402,69.35,109.435,68.709,109.447,68.063z"/>
			<path style="fill:#FFFFFF;" d="M109.339,70.143c-0.053,0.637-0.123,1.27-0.214,1.893
				C109.216,71.412,109.285,70.779,109.339,70.143z"/>
			<path style="fill:#404040;" d="M82.094,69.383c0.1,2.789,2.44,4.969,5.229,4.869c2.79-0.1,4.97-2.441,4.87-5.23
				c-0.101-2.787-2.44-4.969-5.23-4.867C84.174,64.252,81.993,66.594,82.094,69.383z M87.096,67.508
				c0.996,0.035,1.774,0.869,1.74,1.863c-0.012,0.324-0.115,0.617-0.271,0.875c-0.29-0.797-0.984-1.475-2.039-1.512
				c-0.556-0.018-0.979,0.145-1.281,0.414C85.33,68.201,86.136,67.473,87.096,67.508z"/>
			<path style="fill:#FFFFFF;" d="M88.564,70.246c0.156-0.258,0.26-0.551,0.271-0.875c0.034-0.994-0.744-1.828-1.74-1.863
				c-0.96-0.035-1.766,0.693-1.852,1.641c0.302-0.27,0.726-0.432,1.281-0.414C87.58,68.771,88.274,69.449,88.564,70.246z"/>
			<path style="fill:#404040;" d="M67.855,74.252c2.789,0.1,5.13-2.08,5.229-4.869c0.1-2.789-2.08-5.131-4.868-5.229
				c-2.789-0.101-5.129,2.08-5.23,4.867C62.887,71.811,65.065,74.152,67.855,74.252z M68.082,67.508
				c0.961-0.035,1.766,0.693,1.852,1.641c-0.303-0.27-0.726-0.432-1.281-0.414c-1.054,0.037-1.749,0.715-2.039,1.512
				c-0.157-0.258-0.261-0.551-0.271-0.875C66.309,68.377,67.087,67.543,68.082,67.508z"/>
			<path style="fill:#FFFFFF;" d="M68.653,68.734c0.555-0.018,0.979,0.145,1.281,0.414c-0.087-0.947-0.892-1.676-1.852-1.641
				c-0.995,0.035-1.774,0.869-1.738,1.863c0.01,0.324,0.113,0.617,0.271,0.875C66.904,69.449,67.6,68.771,68.653,68.734z"/>
			<path style="fill:#404040;" d="M97.474,91.67c0-9.902-11.894-14.283-19.679-14.283c-7.785,0-19.678,4.381-19.678,14.283
				c0,3.807,2.954,13.789,19.678,13.789C94.518,105.459,97.474,95.477,97.474,91.67z M88.515,93.357
				c0.504,3.094-5.299,5.234-5.299,5.234C82.205,92.031,88.009,90.264,88.515,93.357z M66.642,93.357
				c0.505-3.094,6.311-1.326,5.301,5.234C71.942,98.592,66.14,96.451,66.642,93.357z"/>
			<path style="fill:#FFFFFF;" d="M88.515,93.357c-0.506-3.094-6.31-1.326-5.299,5.234C83.216,98.592,89.019,96.451,88.515,93.357z"
				/>
			<path style="fill:#FFFFFF;" d="M71.942,98.592c1.01-6.56-4.796-8.328-5.301-5.234C66.14,96.451,71.942,98.592,71.942,98.592z"/>
			<path style="fill:#404040;" d="M57.108,29.914c-2.914,1.377,0.525,7.795,6.485,10.545C63.594,40.459,60.022,28.539,57.108,29.914
				z"/>
			<path style="fill:#404040;" d="M98.045,29.914c-2.914-1.375-6.485,10.545-6.485,10.545
				C97.52,37.709,100.959,31.291,98.045,29.914z"/>
			<path style="fill:#404040;" d="M77.59,49.916c0,0,2.815-13.029,6.45-13.535l0.029-0.197l1.544-10.682
				c0,0-2.751-3.381-8.023-3.381c-5.273,0-8.023,3.381-8.023,3.381l1.543,10.682l0.029,0.197
				C74.773,36.887,77.59,49.916,77.59,49.916z"/>
			<path style="fill:#404040;" d="M56.055,74.385c0,0-6.415,0.894-9.267,1.228l0,0c0.001,0.006,0.004,0.014,0.005,0.02
				c0.165,0.615,0.35,1.221,0.55,1.82c0.021,0.063,0.041,0.127,0.063,0.189c0.203,0.6,0.423,1.193,0.66,1.777L56.055,74.385z"/>
			<path style="fill:#404040;" d="M45.73,68.063L45.73,68.063L45.73,68.063c0.014,0.646,0.047,1.287,0.097,1.924
				c0.005,0.053,0.008,0.104,0.013,0.156c0.053,0.637,0.122,1.27,0.214,1.893c0.002,0.01,0.002,0.018,0.003,0.025l0,0l10.889-2.031
				L45.73,68.063z"/>
			<path style="fill:#404040;" d="M58.552,66.908c0,0-9.61-4.588-12.214-5.803l0,0c-0.002,0.008-0.002,0.016-0.005,0.021
				c-0.215,1.09-0.375,2.197-0.478,3.324L58.552,66.908z"/>
			<path style="fill:#404040;" d="M64.511,57.08l-9.8-11.865l0,0l0,0c-0.414,0.426-0.814,0.865-1.204,1.313
				c-0.021,0.025-0.042,0.051-0.063,0.074c-0.388,0.451-0.766,0.91-1.13,1.385L64.511,57.08z"/>
			<path style="fill:#404040;" d="M107.112,79.42L107.112,79.42L107.112,79.42c0.237-0.584,0.456-1.176,0.66-1.775
				c0.022-0.064,0.043-0.129,0.065-0.193c0.2-0.598,0.384-1.203,0.547-1.816c0.002-0.008,0.006-0.014,0.008-0.022h-0.001
				c-2.853-0.334-9.267-1.228-9.267-1.228L107.112,79.42z"/>
			<path style="fill:#404040;" d="M109.123,72.061L109.123,72.061c0-0.008,0-0.016,0.002-0.025c0.091-0.623,0.161-1.256,0.214-1.893
				c0.005-0.053,0.008-0.104,0.013-0.156c0.049-0.637,0.083-1.277,0.096-1.924l0,0l0,0l-11.215,1.967L109.123,72.061z"/>
			<path style="fill:#404040;" d="M109.324,64.451c-0.104-1.125-0.262-2.232-0.479-3.318c-0.002-0.01-0.003-0.018-0.006-0.027l0,0
				c-2.603,1.215-12.213,5.803-12.213,5.803L109.324,64.451z"/>
			<path style="fill:#404040;" d="M102.864,47.986L102.864,47.986L102.864,47.986c-0.363-0.471-0.739-0.932-1.126-1.381
				c-0.023-0.027-0.048-0.055-0.071-0.082c-0.386-0.443-0.782-0.879-1.193-1.301c-0.002-0.004-0.003-0.004-0.006-0.008l0,0
				l-9.8,11.865L102.864,47.986z"/>
			<polygon style="fill:#404040;" points="58.998,117.594 58.998,121.607 66.601,120.232 			"/>
			<polygon style="fill:#404040;" points="94.998,121.607 94.998,117.594 87.396,120.232 			"/>
			<path style="fill:#404040;" d="M61.905,108.122l-9.051-9.497l-0.012,0.047c0.03,0.137,0.071,0.3,0.103,0.437
				c0.087,0.373,0.181,0.759,0.283,1.126c0.045,0.162,0.089,0.334,0.138,0.494c0.155,0.514,0.323,1.029,0.51,1.527
				c0.027,0.074,0.058,0.148,0.086,0.221c0.182,0.475,0.376,0.939,0.585,1.398c0.038,0.082,0.074,0.168,0.111,0.25
				c0.244,0.52,0.501,0.79,0.775,1.288c0.005,0.008,0.007-0.22,0.011-0.22h0.002L61.905,108.122z"/>
			<path style="fill:#404040;" d="M59.322,110.934c1.018,1.063,2.124,2.041,3.313,2.916l3.07,0.398L59.322,110.934z"/>
			<path style="fill:#404040;" d="M93.455,108.361l6.22-2.588l0.241-0.1c1.187-2.145,2.074-4.477,2.603-6.943l-0.256,0.273
				L93.455,108.361z"/>
			<path style="fill:#404040;" d="M89.656,114.248l3.072-0.398c0.895-0.658,1.74-1.375,2.54-2.143
				c0.262-0.254,0.519-0.512,0.771-0.773l-0.365,0.191L89.656,114.248z"/>
		</g>
		<path style="opacity:0.3;fill:#FFFFFF;" d="M107.424,113.322c-1.557,0.914-3.047,1.156-4.432,0.707
			c-1.937-0.625-3.704-2.56-5.081-5.521c3.122-4.209,4.974-9.418,4.974-15.063c0-1.996-0.239-3.936-0.677-5.801
			c2.025-2.457,3.683-5.23,4.904-8.225c0.237-0.584,0.456-1.176,0.66-1.775c0.022-0.064,0.043-0.129,0.065-0.193
			c0.199-0.598,0.384-1.203,0.548-1.816c0.001-0.008,0.005-0.014,0.007-0.022h-0.001c0.309-1.16,0.554-2.346,0.732-3.553
			c0-0.008,0-0.016,0.002-0.025c0.091-0.623,0.16-1.256,0.214-1.893c0.005-0.053,0.008-0.104,0.013-0.156
			c0.051-0.637,0.083-1.277,0.096-1.924c0.006-0.223,0.018-0.441,0.018-0.664c0-2.146-0.215-4.238-0.619-6.266
			c-0.001-0.01-0.003-0.018-0.006-0.027c-0.974-4.865-3.06-9.328-5.976-13.119l0,0c-0.362-0.471-0.738-0.932-1.126-1.381
			c-0.023-0.027-0.048-0.055-0.071-0.082c-0.386-0.443-0.782-0.879-1.193-1.301c-0.001-0.004-0.003-0.004-0.006-0.008
			c-1.132-1.168-2.35-2.25-3.648-3.234c0.413-0.33,0.826-0.684,1.226-1.063c1.543-1.463,11.624-10.773,4.517-16.734
			c-7.105-5.959-13.065,4.063-14.898,9.965c-0.318,1.021-0.638,1.916-0.948,2.707c-0.867-0.258-1.749-0.486-2.646-0.672
			l1.544-10.682c0,0-2.667-3.262-7.767-3.371v96.602c1.729-0.018,3.415-0.205,5.042-0.553v9.836
			c-0.775,1.209-1.375,2.643-1.375,4.186v0.973H97.33v-0.973c0-1.959-0.865-3.744-2.062-5.111v-15.561
			c0.243-0.238,0.479-0.48,0.712-0.726c1.647,3.063,3.742,5.063,6.166,5.846c0.729,0.234,1.477,0.352,2.233,0.352
			c1.451,0,2.938-0.434,4.401-1.283c2.591,1.902,7.196-3.32,8.808-6.742C117.588,108.975,106.081,107.619,107.424,113.322z"/>
	</g>
</g>
</svg>